<svg width="269" height="97" viewBox="0 0 269 97" fill="none" xmlns="http://www.w3.org/2000/svg">
<path d="M199.513 96.9131H187.214V36.5903L199.491 36.0888C199.513 36.3851 202.317 65.7258 222.189 73.2035C231.198 76.6003 239.39 75.9848 244.734 71.5164C250.077 67.0253 252.064 59.3197 250.165 50.3602C245.131 26.6733 221.726 11.2849 221.483 11.1253L204.304 0H269V12.1056H241.532C249.591 20.176 258.887 32.3728 262.155 47.8752C264.959 61.0979 261.426 73.3858 252.683 80.7267C243.828 88.1588 231.11 89.5494 217.773 84.5339C209.802 81.5246 203.862 76.304 199.491 70.4221V96.9131H199.513Z" fill="white"/>
<path d="M169.126 71.8484H159.788C159.788 48.227 155.735 33.0044 147.044 23.9058C138.583 15.0478 124.607 10.9359 103.068 10.9359V0.875C114.872 0.875 124.503 2.03419 132.504 4.39632C141.237 6.97717 148.11 11.0016 153.562 16.6882C159.078 22.4623 163.005 29.833 165.554 39.2378C167.956 48.0958 169.126 58.7691 169.126 71.8484Z" fill="white"/>
<path fill-rule="evenodd" clip-rule="evenodd" d="M102.233 0H103.068C114.92 0 124.633 1.16337 132.731 3.55416L132.731 3.55423C141.577 6.16864 148.583 10.2598 154.152 16.0682L154.153 16.0694C159.787 21.9676 163.778 29.478 166.358 38.9989C168.788 47.9595 169.962 58.7191 169.962 71.8482V72.7231H158.952V71.8482C158.952 48.2839 154.9 33.3667 146.453 24.5243C138.236 15.9206 124.548 11.8107 103.068 11.8107H102.233V0ZM103.904 1.75169V10.063C125.035 10.1684 139.044 14.2927 147.635 23.2871C156.46 32.5261 160.523 47.7867 160.622 70.9734H168.289C168.238 58.3439 167.071 48.0351 164.75 39.4766C162.233 30.1881 158.368 22.957 152.972 17.307C147.636 11.7427 140.896 7.78537 132.277 5.23821M103.904 1.75169C115.277 1.80538 124.561 2.96025 132.277 5.23815Z" fill="white"/>
<path d="M169.126 75.61H159.788C159.788 59.0751 156.654 49.5391 149.301 43.765C141.111 37.3128 126.843 34.4477 103.068 34.4477V24.3867C115.812 24.3867 125.965 25.196 134.113 26.902C142.845 28.7173 149.614 31.5606 154.795 35.6506C160.101 39.8281 163.799 45.2741 166.118 52.3167C168.165 58.5502 169.126 65.9646 169.126 75.61Z" fill="white"/>
<path fill-rule="evenodd" clip-rule="evenodd" d="M102.233 23.5117H103.068C115.84 23.5117 126.053 24.3222 134.276 26.0438C143.086 27.8754 149.985 30.7578 155.298 34.9519C160.747 39.242 164.539 44.8369 166.908 52.0315L166.908 52.0321C168.996 58.3886 169.962 65.9079 169.962 75.6099V76.4847H158.952V75.6099C158.952 59.1563 155.829 49.9843 148.799 44.4647L148.798 44.4639C140.853 38.2042 126.847 35.3224 103.068 35.3224H102.233V23.5117ZM103.904 25.2626V33.5738C127.179 33.6403 141.469 36.4994 149.803 43.0658C157.344 48.9879 160.511 58.6455 160.621 74.735H168.288C168.231 65.5744 167.273 58.5242 165.328 52.6011C163.059 45.7111 159.456 40.4144 154.293 36.3497L154.292 36.349C149.243 32.3633 142.605 29.5591 133.95 27.7599L133.949 27.7597C126.054 26.1067 116.227 25.2974 103.904 25.2626Z" fill="white"/>
<path d="M125.756 95.9284C111.341 95.8628 103.82 84.3146 103.82 72.9632C103.82 61.6119 111.341 50.0637 125.735 49.998H125.777C140.171 50.0637 147.692 61.6119 147.692 72.9632C147.692 84.3365 140.15 95.8628 125.756 95.9284ZM125.756 59.3591C116.877 59.4028 112.908 66.2268 112.908 72.9632C112.908 79.6997 116.877 86.5236 125.756 86.5674C134.635 86.5236 138.604 79.6997 138.604 72.9632C138.604 66.2268 134.635 59.4028 125.756 59.3591Z" fill="white"/>
<path fill-rule="evenodd" clip-rule="evenodd" d="M125.733 49.0146H125.779L125.781 49.0147C140.786 49.0831 148.632 61.1741 148.632 72.9641C148.632 84.7779 140.764 96.8451 125.76 96.9135L125.756 96.9135L125.752 96.9135C110.727 96.8451 102.88 84.7547 102.88 72.9641C102.88 61.1741 110.726 49.0831 125.731 49.0147L125.733 49.0146ZM125.775 50.9831H125.737C111.956 51.047 104.761 62.0518 104.761 72.9641C104.761 83.8751 111.954 94.88 125.756 94.945C139.538 94.88 146.752 83.8957 146.752 72.9641C146.752 62.0518 139.557 51.047 125.775 50.9831ZM125.756 58.3757L125.761 58.3757C130.451 58.3988 133.929 60.224 136.222 63.0097C138.497 65.7731 139.544 69.4048 139.544 72.9641C139.544 76.5233 138.497 80.155 136.222 82.9185C133.929 85.7041 130.451 87.5293 125.761 87.5524L125.756 87.5524L125.752 87.5524C121.062 87.5293 117.584 85.7041 115.29 82.9185C113.015 80.155 111.968 76.5233 111.968 72.9641C111.968 69.4048 113.015 65.7731 115.29 63.0097C117.584 60.224 121.062 58.3988 125.752 58.3757L125.756 58.3757ZM116.715 64.2948C114.785 66.6384 113.848 69.7869 113.848 72.9641C113.848 76.1413 114.785 79.2898 116.715 81.6333C118.625 83.9539 121.57 85.5622 125.756 85.584C129.943 85.5622 132.887 83.9539 134.798 81.6333C136.727 79.2898 137.664 76.1413 137.664 72.9641C137.664 69.7869 136.727 66.6384 134.798 64.2948C132.887 61.9742 129.943 60.3659 125.756 60.3442C121.57 60.3659 118.625 61.9742 116.715 64.2948Z" fill="white"/>
<path d="M42.46 96.9996C21.428 96.9996 4.28998 80.2472 4.28998 59.6375C4.28998 39.0279 21.406 22.2754 42.46 22.2754C63.5139 22.2754 80.6299 39.0507 80.6299 59.6375C80.6299 80.2472 63.5139 96.9996 42.46 96.9996ZM42.46 34.2806C28.16 34.2806 16.544 45.6467 16.544 59.6375C16.544 73.6283 28.16 84.9944 42.46 84.9944C56.7599 84.9944 68.3759 73.6283 68.3759 59.6375C68.3759 45.6467 56.7599 34.2806 42.46 34.2806Z" fill="white"/>
<path d="M84.92 0H0V12.3703H84.92V0Z" fill="white"/>
</svg>
