<svg width="689" height="88" viewBox="0 0 689 88" fill="none" xmlns="http://www.w3.org/2000/svg">
<path d="M61.12 23.072V29.696H77.248V23.072H61.12ZM61.12 48.416V55.136H77.248V48.416H61.12ZM55.552 0.607998V87.584H63.52V0.607998H55.552ZM0.256 60.032V66.656H7.168C23.776 66.656 35.296 65.984 48.832 63.584L47.968 56.96C34.816 59.456 23.488 60.032 7.168 60.032H0.256ZM0.0640006 8.768V15.296H31.456V33.344H0.256V62.72H8.128V39.872H39.328V8.768H0.0640006ZM84.3445 41.504V47.936H162.873V41.504H84.3445ZM119.577 43.712V60.224H127.737V43.712H119.577ZM123.609 2.144C105.177 2.144 92.9845 8.576 92.9845 18.656C92.9845 28.736 105.177 35.072 123.609 35.072C142.041 35.072 154.233 28.736 154.233 18.656C154.233 8.576 142.041 2.144 123.609 2.144ZM123.609 8.672C136.665 8.672 145.401 12.608 145.401 18.656C145.401 24.8 136.665 28.544 123.609 28.544C110.553 28.544 101.721 24.8 101.721 18.656C101.721 12.608 110.553 8.672 123.609 8.672ZM93.6565 80.096V86.624H154.617V80.096H93.6565ZM93.6565 57.344V84.608H101.529V63.968H153.753V57.344H93.6565ZM236.881 0.607998V87.584H244.753V0.607998H236.881ZM218.161 35.456V42.08H239.185V35.456H218.161ZM195.505 21.344V28.736C195.505 43.712 186.289 58.496 173.521 64.64L178.033 70.784C191.761 63.968 201.841 47.072 201.841 28.736V21.344H195.505ZM197.041 21.344V28.736C197.041 46.496 207.217 62.72 221.137 69.152L225.553 63.008C212.785 57.152 203.281 43.04 203.281 28.736V21.344H197.041ZM175.921 15.776V22.208H222.577V15.776H175.921ZM195.409 2.23999V19.328H203.377V2.23999H195.409ZM281.226 7.904C269.994 7.904 262.794 19.52 262.794 38.144C262.794 56.768 269.994 68.384 281.226 68.384C292.458 68.384 299.754 56.768 299.754 38.144C299.754 19.52 292.458 7.904 281.226 7.904ZM281.226 15.296C288.042 15.296 292.362 24.128 292.362 38.144C292.362 52.16 288.042 60.992 281.226 60.992C274.41 60.992 270.09 52.16 270.09 38.144C270.09 24.128 274.41 15.296 281.226 15.296ZM327.786 0.703997V87.488H335.466V0.703997H327.786ZM314.058 35.072V41.6H330.666V35.072H314.058ZM308.586 2.528V83.168H316.17V2.528H308.586ZM360.802 32.96V39.488H418.786V32.96H360.802ZM349.954 50.72V57.344H428.674V50.72H349.954ZM385.09 54.368V87.2H392.962V54.368H385.09ZM360.802 5.79199V36.128H368.866V12.32H417.634V5.79199H360.802ZM446.811 9.92V16.352H502.683V9.92H446.811ZM438.363 68.192V74.816H516.795V68.192H438.363ZM498.459 9.92V18.56C498.459 29.312 498.459 42.272 495.003 60.032L502.971 60.8C506.235 42.08 506.235 29.696 506.235 18.56V9.92H498.459ZM590.035 0.607998V87.584H598.099V0.607998H590.035ZM571.315 19.52V26.144H594.355V19.52H571.315ZM571.315 41.12V47.84H594.355V41.12H571.315ZM549.043 8.192V23.648C549.043 39.776 539.251 56.48 526.483 62.816L531.571 69.152C545.299 61.76 555.475 43.136 555.475 23.648V8.192H549.043ZM550.579 8.192V23.648C550.579 42.752 560.659 60.704 574.579 67.904L579.379 61.472C566.803 55.52 557.011 39.584 557.011 23.648V8.192H550.579ZM680.844 0.703997V87.488H688.524V0.703997H680.844ZM666.828 35.552V42.08H683.436V35.552H666.828ZM644.364 11.84V13.376C644.364 33.44 636.684 51.008 614.892 63.2L619.596 68.864C644.364 54.944 652.044 34.208 652.044 11.84H644.364ZM618.252 11.84V18.464H647.052V11.84H618.252ZM661.548 3.008V83.264H669.132V3.008H661.548Z" fill="white"/>
</svg>
