<svg width="1440" height="673" viewBox="0 0 1440 673" fill="none" xmlns="http://www.w3.org/2000/svg">
<path d="M224.683 627.534L288.883 474.234H329.383V670.434H299.983V521.034L239.383 670.434H202.183L142.783 521.034V670.434H112.183V474.234H154.183L216.883 627.534L220.483 640.734L224.683 627.534Z" fill="white"/>
<path d="M467.284 471.553H315.484L467.284 555.853V596.053H271.084V565.453H423.484L271.084 481.153V440.653L467.284 440.653V471.553Z" fill="white"/>
<path d="M656.376 476.327H686.976V569.327L772.176 476.327H811.176L732.576 566.327L811.176 672.527H769.776L707.976 586.727L686.976 607.127V672.527H656.376V476.327Z" fill="white"/>
<path d="M409.195 199.879L379.195 205.879C375.395 191.479 369.395 180.579 361.195 173.179C352.995 165.579 342.995 161.779 331.195 161.779C314.395 161.779 301.295 168.279 291.895 181.279C282.495 194.079 277.795 212.279 277.795 235.879C277.795 259.079 282.495 277.079 291.895 289.879C301.295 302.479 314.395 308.779 331.195 308.779C343.795 308.779 354.395 304.579 362.995 296.179C371.795 287.579 377.395 275.579 379.795 260.179L409.795 266.479C405.595 289.479 396.395 307.279 382.195 319.879C367.995 332.479 350.995 338.779 331.195 338.779C305.395 338.779 284.795 329.779 269.395 311.779C254.195 293.579 246.595 268.279 246.595 235.879C246.595 203.079 254.195 177.579 269.395 159.379C284.795 141.179 305.395 132.079 331.195 132.079C349.195 132.079 365.095 137.979 378.895 149.779C392.695 161.579 402.795 178.279 409.195 199.879Z" fill="white"/>
<path d="M113.029 455.383L179.472 378.99L211.069 388.51L88.6922 523.314C81.4924 531.305 73.4546 536.762 64.5789 539.686C55.9751 542.484 47.6518 542.672 39.6089 540.248L7.43756 530.555L18.7876 504.74L40.0436 511.144C44.8311 512.587 48.9122 512.676 52.2871 511.412C55.8535 510.206 59.5297 507.271 63.3155 502.606L72.0752 491.561L79.5107 348.871L111.108 358.391L102.976 452.354L99.0864 468.598L103.108 469.81L113.029 455.383Z" fill="white"/>
<path d="M776.882 299.598C776.882 305.398 774.682 310.498 770.282 314.898C766.082 319.098 760.982 321.198 754.982 321.198C748.982 321.198 743.782 319.098 739.382 314.898C735.182 310.498 733.082 305.398 733.082 299.598H709.682C709.682 310.798 713.982 320.198 722.582 327.798C731.382 335.198 742.182 338.898 754.982 338.898C767.782 338.898 778.482 335.198 787.082 327.798C795.882 320.198 800.282 310.798 800.282 299.598H776.882ZM706.682 354.798V506.598L790.982 354.798H831.182V550.998H800.582V398.598L716.282 550.998H675.782V354.798H706.682Z" fill="white"/>
<path d="M399.745 475.868L429.335 468.073L462.703 554.881L511.725 446.371L549.438 436.436L505.722 540.466L619.832 619.573L579.798 630.119L489.253 565.774L476.265 590.165L499.729 651.21L470.139 659.005L399.745 475.868Z" fill="white"/>
<path d="M801.686 95.1C802.586 99.9 802.886 104.1 802.886 108.6C802.886 117 801.686 130.5 800.486 141.3C777.986 141.6 761.486 142.2 742.286 140.1C742.886 148.5 742.886 156.3 743.786 162.9C744.086 168 745.886 169.5 749.186 169.8C752.786 170.4 757.586 170.4 766.286 170.4C771.386 170.4 779.486 170.7 797.186 170.1C796.586 181.5 795.986 194.7 795.686 207.6C758.786 225.9 725.486 262.5 725.486 300.9C725.486 324.3 738.386 338.1 758.786 338.1C774.086 338.1 789.686 331.2 810.986 316.5C812.486 321 813.986 324.6 816.086 328.2C817.886 331.2 819.086 331.2 822.086 329.7C826.286 327.9 833.186 324.3 840.086 319.2C843.086 317.1 844.286 315.6 842.486 311.7C840.386 306.9 838.586 303.6 837.086 298.2C858.686 276.3 876.386 252.6 893.786 219.6C913.886 224.7 930.986 239.1 930.986 263.1C930.986 284.7 921.386 297.6 906.986 308.1C895.886 315.9 872.786 325.5 851.186 330C860.786 338.1 866.786 344.4 868.886 348.6C872.186 355.2 875.486 356.1 882.086 354.3C929.786 341.4 965.486 313.2 965.486 269.7C965.486 232.2 942.686 206.7 903.986 196.5C905.486 193.8 906.386 192 907.886 190.5C909.086 189.3 909.686 188.1 909.686 186.9C909.686 185.1 907.886 182.7 904.286 180.3C900.086 177.3 888.386 172.5 877.586 169.2C877.286 177.6 874.286 186.3 872.486 191.1C857.786 191.4 838.286 193.8 826.586 197.7C826.886 187.2 827.486 180 828.686 167.4C855.986 165 874.286 162.9 913.886 154.8C917.186 154.2 920.186 152.7 920.186 148.8C920.186 142.2 918.686 134.7 917.186 128.4C916.586 125.7 915.686 124.5 912.086 125.4C882.986 132 861.686 135.3 834.086 138C834.986 132.9 835.586 128.4 836.486 123C837.086 119.7 837.986 115.5 840.686 112.2C841.886 110.7 842.186 109.5 842.186 107.4C842.186 105 840.386 103.2 836.786 102C829.286 99.3 819.086 97.2 801.686 95.1ZM828.686 268.5C826.286 253.2 825.386 239.1 825.086 223.5C838.886 219 852.686 216.9 863.486 216.6C855.086 233.4 840.986 254.4 828.686 268.5ZM795.686 237C796.286 254.4 798.686 270.6 801.686 288.6C786.386 300.6 775.286 306 766.886 306C761.486 306 756.986 301.8 756.986 294.6C756.986 275.1 772.586 253.5 795.686 237Z" fill="white"/>
<path d="M1075.7 138.277H1106.3V231.277L1191.5 138.277H1230.5L1151.9 228.277L1230.5 334.477H1189.1L1127.3 248.677L1106.3 269.077V334.477H1075.7V138.277Z" fill="white"/>
<path d="M454.097 425.207L453.437 426.558L454.863 427.033L481.337 435.847L482.744 436.316L483.409 434.988C504.586 392.705 527.67 358.666 554.733 338.479C568.235 328.408 582.705 321.802 598.426 319.319C614.151 316.835 631.238 318.459 649.984 325.007C669.01 331.664 682.549 340.825 691.604 352.067C700.658 363.307 705.292 376.703 706.371 391.932C708.533 422.454 696.406 460.223 677.085 502.309L676.476 503.635L677.864 504.1L703.497 512.692L704.919 513.169L705.578 511.821C729.382 463.136 741.461 416.277 736.484 377.812C731.495 339.254 709.363 309.192 665.008 294.324C620.644 279.454 579.728 287.801 543.983 312.141C508.329 336.418 477.889 376.549 454.097 425.207Z" fill="white" stroke="white" stroke-width="3"/>
<path d="M667.555 248.052L668.213 246.704L666.791 246.228L642.31 238.022L640.888 237.545L640.229 238.892L572.59 377.228L571.931 378.575L573.354 379.052L597.835 387.258L599.257 387.735L599.916 386.387L667.555 248.052Z" fill="white" stroke="white" stroke-width="3"/>
<path d="M725.829 267.585L726.488 266.237L725.066 265.761L700.585 257.555L699.162 257.078L698.504 258.426L630.865 396.761L630.206 398.108L631.628 398.585L656.109 406.791L657.531 407.268L658.19 405.92L725.829 267.585Z" fill="white" stroke="white" stroke-width="3"/>
<path d="M298.204 297.483C302.44 301.446 304.389 306.23 304.052 311.837C303.731 317.188 301.15 321.636 296.309 325.182C291.469 328.727 285.74 330.365 279.124 330.095C272.523 329.571 267.104 327.328 262.869 323.365L243.991 337.192C252.17 344.844 262.503 348.725 274.99 348.836C287.493 348.692 298.908 344.838 309.234 337.275C319.561 329.711 325.491 320.86 327.025 310.723C328.575 300.331 325.261 291.308 317.082 283.656L298.204 297.483ZM281.879 376.678L392.726 480.39L349.887 326.865L382.319 303.111L525.587 437.158L500.901 455.24L389.616 351.117L432.892 505.053L400.219 528.984L256.951 394.937L281.879 376.678Z" fill="white"/>
<path d="M887.344 522.055L966.291 469.053L998.683 480.027L896.542 548.405L911.448 655.811L879.34 644.933L867.933 561.319L869.992 549.771L866.583 548.616L857.988 557.949L778.756 610.855L746.933 600.074L848.524 532.137L833.884 424.193L865.707 434.975L877.399 518.686L875.624 530.329L879.033 531.484L887.344 522.055Z" fill="white"/>
<path d="M1008.61 531C976.988 531 946.887 515.849 921.34 486.986C871.397 430.641 894.013 350.409 938.615 296L959.294 314.8C931.967 348.198 897.468 417.868 941.285 467.356C962.435 491.188 985.731 502.966 1010.7 502.192C1038.76 501.362 1064.41 484.442 1077.4 467.965C1117.65 417.039 1093.21 383.862 1080.85 371.974C1076.45 367.716 1071.59 364.122 1066.51 361.192C1039.18 400.893 1009.39 445.681 1008.92 446.345L999.656 460.389L988.139 448.335C987.196 447.34 965.262 424.061 965.209 392.544C965.157 373.965 972.486 356.768 986.935 341.562C1005 322.541 1031.75 319.279 1056.82 326.412C1064.99 314.8 1072.42 304.349 1078.29 296.498L1099.75 314.358C1095.04 320.661 1089.18 328.734 1082.74 337.913C1088.7 341.618 1094.25 345.931 1099.28 350.741C1128.49 378.831 1143.62 429.259 1098.39 486.433C1082.68 506.284 1050.54 529.839 1011.43 531C1010.54 531 1009.55 531 1008.61 531ZM1033.32 351.792C1022.53 351.792 1012.8 355.054 1006.36 361.911C988.034 381.208 991.489 400.561 997.666 413.334C1007.77 398.239 1023.48 374.905 1039.13 352.068C1037.14 351.902 1035.25 351.792 1033.32 351.792Z" fill="white"/>
<path d="M1179.95 504.087C1169.11 524.248 1159.88 540.261 1147.24 559.949C1156.95 562.928 1169.61 566.237 1173.4 566.93C1176.19 567.513 1178.54 566.603 1180.32 563.826C1188.59 550.953 1197.43 534.446 1205.09 520.332C1229.79 536.709 1247.84 549.187 1268.43 565.376C1271.9 568.198 1275.37 571.021 1279.23 574.338C1281.21 576.183 1282.97 577.281 1284.07 577.764C1286.54 578.852 1288.62 577.821 1293.13 574.628C1298.84 570.668 1307.22 563.667 1311.33 558.356C1313.07 556.205 1312.45 554.964 1310.29 551.747C1308.18 547.904 1306.51 543.93 1304.4 540.087C1293.16 517.008 1295.48 485.975 1312.99 458.714C1325.31 439.53 1343.28 435.135 1357.56 441.42C1374.86 449.034 1381.49 463.933 1377.79 487.237C1373.88 511.419 1367.56 528.388 1346.36 566.328C1355.31 562.819 1362.96 561.329 1374.61 561.279C1381.13 561.556 1383.63 560.393 1385.25 557.869C1389.31 551.559 1392.38 545.138 1395.33 538.344C1408.33 508.776 1415.69 484.167 1414.71 464.308C1413.74 438.95 1401.89 421.755 1377.72 411.119C1349.44 398.67 1311.24 410.994 1289.67 444.566C1272 472.079 1266.22 501.914 1272.25 529.821C1255.95 516.817 1239.82 505.186 1219.3 491.621C1229.9 469.088 1235.63 454.128 1244.36 430.124C1245.27 427.61 1244.93 426.49 1241.91 425.161C1235.32 422.26 1227.42 419.754 1220.46 417.984C1216.56 416.918 1215.48 418.059 1214.31 422.076C1209.35 438.025 1200.17 460.536 1193.99 474.003C1185.19 468.511 1180.34 465.084 1173.74 460.558C1171.05 458.724 1167.67 454.65 1166.34 451.796C1165.73 450.555 1164.45 448.699 1163.08 448.095C1160.88 447.128 1158.1 448.17 1154.89 450.968C1148.48 456.564 1140.56 465.057 1129.67 478.72C1137.9 480.721 1145.2 483.611 1156.63 489.938C1162.74 493.596 1171.15 498.594 1179.95 504.087Z" fill="white"/>
<path d="M1310.3 327.466L1249.2 452.873L1221.88 443.752L1269.58 345.853L1217.51 328.466L1171.78 422.32L1144.18 413.104L1189.9 319.25L1138.4 302.053L1090.7 399.952L1063.1 390.736L1124.2 265.328L1310.3 327.466Z" fill="white"/>
</svg>
