<svg width="565" height="89" viewBox="0 0 565 89" fill="none" xmlns="http://www.w3.org/2000/svg">
<path d="M17.872 54.368V48.032H51.568V54.368H17.872ZM53.872 54.368V48.032H88.912V54.368H53.872ZM32.272 68.384V0.416H38.8V68.384H32.272ZM66.736 68.384V0.416H73.36V68.384H66.736ZM31.504 50.816C28.048 38.336 21.136 24.992 13.744 18.464C15.28 17.312 17.392 15.008 18.448 13.568C25.84 21.056 32.656 35.456 36.208 49.472L31.504 50.816ZM66.16 50.816C62.224 38.24 54.64 24.704 46.96 18.08C48.4 16.928 50.608 14.72 51.664 13.28C59.344 20.864 66.64 35.456 70.576 49.472L66.16 50.816ZM74.608 51.2L70.288 49.76C73.744 36.608 80.176 21.824 86.704 14.048C87.856 15.776 90.064 17.984 91.6 19.136C84.976 25.76 78.16 39.104 74.608 51.2ZM37.936 45.152L34.288 41.6C37.552 38.432 45.904 29.504 48.688 25.664L52.624 31.424C50.32 33.728 40.72 42.944 37.936 45.152ZM45.04 88.544V73.28H52.432V88.544H45.04ZM12.208 77.6V70.688H89.008V77.6H12.208ZM7.984 77.6V51.488C7.984 37.856 7.312 18.752 0.208 5.216C1.84 4.448 5.008 2.24 6.256 0.8C13.936 15.392 15.184 36.896 15.184 51.488V77.6H7.984ZM118.864 84.512V53.408C118.864 36.128 116.656 18.176 97.072 5.696C98.704 4.448 101.104 1.76 102.16 0.128C123.568 13.952 126.064 33.824 126.064 53.408V84.512H118.864ZM154.48 84.704V13.568C154.48 3.872 156.592 1.184 164.464 1.184C166.096 1.184 174.256 1.184 175.888 1.184C184.144 1.184 185.776 7.328 186.544 25.088C184.528 25.472 181.648 26.816 179.728 28.256C179.344 12.32 178.864 8.192 175.408 8.192C173.584 8.192 166.864 8.192 165.424 8.192C162.256 8.192 161.68 8.96 161.68 13.472V84.704H154.48ZM254.8 88.448V75.2H261.616V88.448H254.8ZM236.464 78.08V71.648H280.816V78.08H236.464ZM254.8 39.488V0.224H261.616V39.488H254.8ZM234.832 30.56V23.936H282.064V30.56H234.832ZM246.448 69.248C244.336 58.016 240.208 48.128 233.68 41.792C235.024 40.64 237.328 38.336 238.192 37.184C245.296 44.384 250.192 55.52 252.592 68.288L246.448 69.248ZM244.432 54.56C247.792 51.68 251.824 47.456 253.936 44.864L257.488 50.24C255.472 52.736 251.152 56.48 247.888 59.264L244.432 54.56ZM267.568 69.248C265.552 58.496 261.232 49.28 254.512 43.424C255.856 42.272 258.064 39.872 259.024 38.624C266.32 45.44 271.312 55.904 273.808 68.192L267.568 69.248ZM264.496 54.56C269.488 49.568 275.536 42.752 278.416 38.432L282.928 42.848C279.952 46.976 273.712 53.6 268.816 58.304L264.496 54.56ZM196.144 65.888V0.512H201.712V59.744H227.344V1.856H233.2V65.888H196.144ZM198.64 28.64V22.88H230.8V28.64H198.64ZM198.64 13.184V7.424H230.8V13.184H198.64ZM194.512 84.416V78.272H234.256V84.416H194.512ZM206.416 82.4V61.376H211.6V82.4H206.416ZM217.264 82.4V61.376H222.544V82.4H217.264ZM207.664 61.472V52.448C207.664 47.552 206.8 41.6 201.136 36.8C202.096 36.32 203.728 34.976 204.4 34.112C210.352 39.392 211.792 46.784 211.792 52.448V61.472H207.664ZM217.072 61.472V44.576C217.072 39.968 218.224 39.104 222.064 39.104C222.736 39.104 226 39.104 226.768 39.104C229.36 39.104 230.704 39.968 231.184 41.984C229.936 42.368 228.304 42.752 227.44 43.52C227.248 43.328 227.056 43.328 225.904 43.328C225.232 43.328 222.928 43.328 222.448 43.328C221.296 43.328 221.2 43.52 221.2 44.576V61.472H217.072ZM297.04 81.92V75.968H371.152V81.92H297.04ZM297.424 20.48V14.912H370.672V20.48H297.424ZM290.608 65.696V59.744H377.296V65.696H290.608ZM290.416 8.288V2.432H377.584V8.288H290.416ZM329.968 88.64V77.408H337.456V88.64H329.968ZM330.16 51.68V5.792H337.264V51.68H330.16ZM350.128 76.64C348.88 73.472 346.48 68.96 344.656 65.984L351.088 64.352C353.104 67.136 355.408 70.976 357.616 74.912L350.128 76.64ZM310.48 74.72C312.784 71.744 314.896 67.424 315.472 64.544L322.672 66.368C321.904 69.152 319.696 73.28 317.2 76.256L310.48 74.72ZM307.984 38.336H359.728V31.52H307.984V38.336ZM307.984 49.76H359.728V43.04H307.984V49.76ZM301.264 54.56V26.624H366.832V54.56H301.264ZM425.968 88.64V8.384C425.968 6.656 425.392 6.08 423.664 5.984C421.936 5.984 416.176 5.888 410.416 6.08C411.376 4.448 412.528 1.76 412.912 0.0319996C420.976 0.0319996 425.968 0.128 429.04 1.088C432.016 2.144 433.264 3.872 433.264 8.384V88.64H425.968ZM388.432 80.96V75.008H471.76V80.96H388.432ZM405.328 64.256H454.864V57.344H405.328V64.256ZM398.512 69.248V52.256H462.16V69.248H398.512ZM395.728 45.536V40.16H456.4V10.592H463.6V45.536H395.728ZM386.608 33.536V27.776H473.584V33.536H386.608ZM394.768 20.48V14.912H460.144V20.48H394.768ZM491.056 14.24V6.944H561.232V14.24H491.056ZM491.248 48.512V41.312H561.232V48.512H491.248ZM487.216 82.016V1.088H494.32V75.008H557.584V1.088H564.976V82.016H487.216ZM521.776 78.656V10.592H529.072V78.656H521.776Z" fill="white"/>
</svg>
