<svg width="295" height="33" viewBox="0 0 295 33" fill="none" xmlns="http://www.w3.org/2000/svg">
<path d="M19.0699 6.62305C5.66962 6.62305 0 17.7806 0 32.2609L4.04134 32.2533C4.17337 19.5792 7.42258 10.6623 19.0699 10.7995C30.8932 10.9443 33.893 20.0974 34.2231 32.5582H38.1397C38.1397 18.0702 32.4628 6.62305 19.0699 6.62305Z" fill="#5546FF"/>
<path d="M16.2167 0.380859H12.4761V21.0192H16.2167V0.380859Z" fill="#5546FF"/>
<path d="M25.1209 0.380859H21.3803V21.0192H25.1209V0.380859Z" fill="#5546FF"/>
<path fill-rule="evenodd" clip-rule="evenodd" d="M44.2641 12.6283C44.2641 5.74634 49.9777 0.152344 56.9896 0.152344C64.0088 0.152344 69.715 5.74634 69.715 12.6283C69.715 19.5027 64.0088 25.1043 56.9896 25.1043C49.9704 25.1043 44.2641 19.5103 44.2641 12.6283ZM48.3495 12.6283C48.3495 17.3001 52.2221 21.0955 56.9896 21.0955C61.757 21.0955 65.6297 17.3001 65.6297 12.6283C65.6297 7.9565 61.757 4.16112 56.9896 4.16112C52.2221 4.16112 48.3495 7.9565 48.3495 12.6283ZM42.8339 28.4119V32.5427H71.1453V28.4119H42.8339Z" fill="black"/>
<ellipse cx="57.135" cy="12.6024" rx="2.9934" ry="2.98819" fill="black"/>
<path d="M94.0405 9.14551H98.1365V22.6413C98.1365 24.5402 97.183 27.8617 94.8726 29.7991C92.5622 31.7365 90.3985 32.5427 86.9146 32.5427V28.0462C90.0597 28.0462 93.8265 26.6915 94.0405 22.6413V9.14551Z" fill="black"/>
<path d="M80.1554 9.14551H76.0594V22.6413C76.0594 24.5402 77.0129 27.8617 79.3233 29.7991C81.6337 31.7365 83.7974 32.5427 87.2813 32.5427V28.0462C84.1362 28.0462 80.3694 26.6915 80.1554 22.6413V9.14551Z" fill="black"/>
<path d="M98.3565 3.0485C98.3565 4.73214 97.043 6.097 95.4227 6.097C93.8024 6.097 92.4889 4.73214 92.4889 3.0485C92.4889 1.36486 93.8024 0 95.4227 0C97.043 0 98.3565 1.36486 98.3565 3.0485Z" fill="black"/>
<path d="M81.7071 3.0485C81.7071 4.73214 80.3935 6.097 78.7732 6.097C77.1529 6.097 75.8394 4.73214 75.8394 3.0485C75.8394 1.36486 77.1529 0 78.7732 0C80.3935 0 81.7071 1.36486 81.7071 3.0485Z" fill="black"/>
<path d="M119.248 32.7712C114.818 32.7712 110.6 30.6829 107.021 26.7047C100.024 18.9386 103.193 7.88017 109.442 0.380859L112.339 2.97208C108.51 7.57532 103.677 17.1781 109.816 23.9991C112.779 27.2839 116.043 28.9072 119.541 28.8005C123.473 28.6862 127.067 26.3541 128.885 24.0829C134.526 17.0638 131.101 12.491 129.37 10.8525C128.753 10.2656 128.071 9.77024 127.36 9.36631C123.531 14.8384 119.358 21.0116 119.292 21.103L117.994 23.0388L116.38 21.3774C116.248 21.2402 113.175 18.0317 113.168 13.6876C113.16 11.1268 114.187 8.75661 116.211 6.66077C118.742 4.03906 122.49 3.5894 126.003 4.57255C127.147 2.97208 128.189 1.53167 129.01 0.449452L132.017 2.91111C131.357 3.77994 130.536 4.89264 129.634 6.15776C130.47 6.66839 131.247 7.26285 131.951 7.92589C136.044 11.7975 138.164 18.7481 131.827 26.6284C129.626 29.3645 125.123 32.6111 119.644 32.7712C119.519 32.7712 119.38 32.7712 119.248 32.7712ZM122.71 8.0707C121.199 8.0707 119.835 8.52035 118.932 9.46539C116.365 12.1252 116.849 14.7926 117.715 16.5531C119.131 14.4725 121.331 11.2564 123.524 8.10881C123.245 8.08594 122.981 8.0707 122.71 8.0707Z" fill="black"/>
<path d="M140.794 0.380859L140.53 32.7331L144.454 32.7712L144.718 0.411342L140.794 0.380859Z" fill="black"/>
<path d="M155.251 33.0001V28.9761C161.419 28.9761 164.192 24.6396 165.292 22.056C167.419 17.0793 166.935 10.7003 164.162 7.21744C162.211 4.77102 159.321 4.047 155.815 5.1216C150.461 6.76779 144.63 14.3967 144.506 27.2613L140.765 27.2156C140.919 12.2094 147.923 3.36871 154.796 1.25C159.739 -0.26663 164.074 0.922286 167.008 4.59573C170.734 9.26755 171.445 17.3156 168.702 23.7327C166.179 29.6163 161.272 33.0001 155.251 33.0001Z" fill="black"/>
<path d="M179.161 32.3979H175.076V12.2321L179.154 12.0644C179.161 12.1635 180.093 21.9721 186.694 24.4718C189.686 25.6074 192.408 25.4016 194.183 23.9079C195.958 22.4065 196.618 19.8305 195.987 16.8353C194.315 8.91686 186.54 3.77251 186.459 3.71916L180.753 0H202.243V4.04688H193.119C195.796 6.7448 198.884 10.8222 199.97 16.0046C200.901 20.4249 199.728 24.5328 196.823 26.9868C193.882 29.4714 189.657 29.9363 185.227 28.2596C182.579 27.2536 180.606 25.5083 179.154 23.542V32.3979H179.161Z" fill="black"/>
<path d="M221.137 32.3904C214.125 32.3904 208.412 26.7965 208.412 19.9145C208.412 13.0325 214.118 7.43848 221.137 7.43848C228.156 7.43848 233.863 13.0401 233.863 19.9145C233.863 26.7965 228.156 32.3904 221.137 32.3904ZM221.137 11.4473C216.37 11.4473 212.497 15.2426 212.497 19.9145C212.497 24.5863 216.37 28.3817 221.137 28.3817C225.905 28.3817 229.777 24.5863 229.777 19.9145C229.777 15.2426 225.905 11.4473 221.137 11.4473Z" fill="black"/>
<path d="M235.293 0H206.981V4.13071H235.293V0Z" fill="black"/>
<path d="M262.372 24.1116H259.257C259.257 16.3097 257.906 11.2819 255.007 8.27672C252.185 5.35103 247.523 3.99293 240.339 3.99293V0.669922C244.276 0.669922 247.488 1.05279 250.157 1.83297C253.07 2.6854 255.362 4.01461 257.181 5.89283C259.02 7.79995 260.33 10.2344 261.18 13.3407C261.982 16.2664 262.372 19.7917 262.372 24.1116Z" fill="black"/>
<path fill-rule="evenodd" clip-rule="evenodd" d="M240.06 0.380859H240.339C244.292 0.380859 247.532 0.765107 250.233 1.55476L250.233 1.55478C253.183 2.41829 255.52 3.76954 257.378 5.68801L257.378 5.6884C259.257 7.63648 260.588 10.1171 261.449 13.2617C262.259 16.2213 262.651 19.7751 262.651 24.1115V24.4004H258.979V24.1115C258.979 16.3285 257.627 11.4015 254.81 8.48094C252.069 5.63926 247.503 4.28178 240.339 4.28178H240.06V0.380859ZM240.618 0.959422V3.70455C247.666 3.73935 252.338 5.10158 255.204 8.0723C258.147 11.1238 259.502 16.1642 259.535 23.8225H262.093C262.076 19.6512 261.687 16.2463 260.912 13.4195C260.073 10.3516 258.784 7.96329 256.984 6.09715C255.204 4.25934 252.956 2.95228 250.081 2.11098M240.618 0.959422C244.411 0.977154 247.508 1.3586 250.081 2.11096L240.618 0.959422Z" fill="black"/>
<path d="M262.372 25.354H259.257C259.257 19.8927 258.212 16.7431 255.759 14.8359C253.028 12.7049 248.269 11.7586 240.339 11.7586V8.43555C244.59 8.43555 247.976 8.70283 250.694 9.2663C253.606 9.86589 255.864 10.805 257.592 12.1559C259.362 13.5356 260.595 15.3344 261.369 17.6605C262.052 19.7193 262.372 22.1682 262.372 25.354Z" fill="black"/>
<path fill-rule="evenodd" clip-rule="evenodd" d="M240.06 8.14648H240.339C244.599 8.14648 248.005 8.41417 250.748 8.98281C253.687 9.58774 255.988 10.5398 257.76 11.925C259.577 13.342 260.842 15.1899 261.632 17.5662L261.632 17.5664C262.329 19.6659 262.651 22.1494 262.651 25.3539V25.6428H258.979V25.3539C258.979 19.9195 257.937 16.8901 255.592 15.067L255.592 15.0667C252.942 12.9992 248.27 12.0474 240.339 12.0474H240.06V8.14648ZM240.618 8.72479V11.4699C248.381 11.4918 253.147 12.4362 255.927 14.605C258.442 16.561 259.498 19.7508 259.535 25.0649H262.092C262.073 22.0393 261.754 19.7107 261.105 17.7544C260.348 15.4787 259.147 13.7292 257.424 12.3867L257.424 12.3865C255.74 11.07 253.526 10.1439 250.639 9.54962L250.639 9.54954C248.006 9.00356 244.728 8.73629 240.618 8.72479Z" fill="black"/>
<path d="M247.906 32.0648C243.098 32.0431 240.59 28.2289 240.59 24.4797C240.59 20.7304 243.098 16.9162 247.899 16.8945H247.913C252.714 16.9162 255.223 20.7304 255.223 24.4797C255.223 28.2361 252.707 32.0431 247.906 32.0648ZM247.906 19.9864C244.945 20.0008 243.621 22.2547 243.621 24.4797C243.621 26.7046 244.945 28.9585 247.906 28.9729C250.868 28.9585 252.192 26.7046 252.192 24.4797C252.192 22.2547 250.868 20.0008 247.906 19.9864Z" fill="black"/>
<path fill-rule="evenodd" clip-rule="evenodd" d="M247.899 16.5693H247.914L247.915 16.5693C252.919 16.5919 255.536 20.5855 255.536 24.4795C255.536 28.3815 252.912 32.3671 247.908 32.3897L247.906 32.3897L247.905 32.3897C242.893 32.3671 240.276 28.3738 240.276 24.4795C240.276 20.5855 242.893 16.5919 247.898 16.5693L247.899 16.5693ZM247.913 17.2195H247.9C243.303 17.2406 240.903 20.8753 240.903 24.4795C240.903 28.0833 243.303 31.7181 247.906 31.7396C252.503 31.7181 254.909 28.0901 254.909 24.4795C254.909 20.8753 252.509 17.2406 247.913 17.2195ZM247.906 19.6612L247.908 19.6612C249.472 19.6688 250.632 20.2717 251.397 21.1917C252.156 22.1045 252.505 23.304 252.505 24.4795C252.505 25.6551 252.156 26.8546 251.397 27.7674C250.632 28.6874 249.472 29.2903 247.908 29.2979L247.906 29.2979L247.905 29.2979C246.341 29.2903 245.18 28.6874 244.416 27.7674C243.657 26.8546 243.307 25.6551 243.307 24.4795C243.307 23.304 243.657 22.1045 244.416 21.1917C245.18 20.2717 246.341 19.6688 247.905 19.6612L247.906 19.6612ZM244.891 21.6162C244.247 22.3902 243.935 23.4301 243.935 24.4795C243.935 25.5289 244.247 26.5688 244.891 27.3429C245.528 28.1093 246.51 28.6406 247.906 28.6477C249.303 28.6406 250.285 28.1093 250.922 27.3429C251.566 26.5688 251.878 25.5289 251.878 24.4795C251.878 23.4301 251.566 22.3902 250.922 21.6162C250.285 20.8497 249.303 20.3185 247.906 20.3113C246.51 20.3185 245.528 20.8497 244.891 21.6162Z" fill="black"/>
<path d="M294.395 0H267.492V3.99353H294.395V0Z" fill="black"/>
<path d="M294.38 8.99316H267.418V12.9943H294.38V8.99316Z" fill="black"/>
<path fill-rule="evenodd" clip-rule="evenodd" d="M293.251 21.9887C292.362 24.6627 290.886 26.7523 288.722 28.8287C285.951 31.4878 282.234 32.4269 278.594 32.7708C275.974 33.0183 273.132 32.9702 270.475 32.9252C269.472 32.9082 268.494 32.8917 267.565 32.8917V28.7C268.643 28.7 269.71 28.7181 270.765 28.736C273.34 28.7798 275.838 28.8222 278.228 28.5964C281.567 28.281 284.195 27.4667 285.985 25.7492C287.794 24.0137 288.819 22.4821 289.438 20.62C290.08 18.6892 290.339 16.2469 290.339 12.5752H294.373C294.373 16.3747 294.117 19.3834 293.251 21.9887Z" fill="black"/>
</svg>
