<svg width="1131" height="127" viewBox="0 0 1131 127" fill="none" xmlns="http://www.w3.org/2000/svg">
<path d="M73.2622 25.4883C21.7814 25.4883 0 68.4278 0 124.155L15.526 124.126C16.0332 75.3497 28.5159 41.0333 73.2622 41.5613C118.685 42.1185 130.21 77.3442 131.478 125.299H146.524C146.524 69.5423 124.715 25.4883 73.2622 25.4883Z" fill="white"/>
<path d="M62.3011 1.4668H47.9304V80.8931H62.3011V1.4668Z" fill="white"/>
<path d="M96.5089 1.4668H82.1382V80.8931H96.5089V1.4668Z" fill="white"/>
<path fill-rule="evenodd" clip-rule="evenodd" d="M170.053 48.6005C170.053 22.1153 192.003 0.586914 218.941 0.586914C245.908 0.586914 267.83 22.1153 267.83 48.6005C267.83 75.0564 245.908 96.6142 218.941 96.6142C191.975 96.6142 170.053 75.0858 170.053 48.6005ZM185.748 48.6005C185.748 66.58 200.626 81.1865 218.941 81.1865C237.257 81.1865 252.135 66.58 252.135 48.6005C252.135 30.6211 237.257 16.0146 218.941 16.0146C200.626 16.0146 185.748 30.6211 185.748 48.6005ZM164.558 109.344V125.241H273.325V109.344H164.558Z" fill="white"/>
<circle cx="219.5" cy="48.5" r="11.5" fill="white"/>
<path d="M361.283 35.1963H377.019V87.1346C377.019 94.4426 373.356 107.225 364.48 114.681C355.604 122.137 347.291 125.24 333.907 125.24V107.935C345.99 107.935 360.461 102.722 361.283 87.1346V35.1963Z" fill="white"/>
<path d="M307.94 35.1963H292.204V87.1346C292.204 94.4426 295.867 107.225 304.743 114.681C313.619 122.137 321.931 125.24 335.316 125.24V107.935C323.233 107.935 308.761 102.722 307.94 87.1346V35.1963Z" fill="white"/>
<path d="M377.864 11.7321C377.864 18.2116 372.818 23.4642 366.593 23.4642C360.368 23.4642 355.322 18.2116 355.322 11.7321C355.322 5.25264 360.368 0 366.593 0C372.818 0 377.864 5.25264 377.864 11.7321Z" fill="white"/>
<path d="M313.901 11.7321C313.901 18.2116 308.854 23.4642 302.629 23.4642C296.405 23.4642 291.358 18.2116 291.358 11.7321C291.358 5.25264 296.405 0 302.629 0C308.854 0 313.901 5.25264 313.901 11.7321Z" fill="white"/>
<path d="M458.124 126.12C441.105 126.12 424.903 118.084 411.152 102.774C384.27 72.886 396.443 30.3278 420.45 1.4668L431.581 11.4391C416.872 29.1546 398.303 66.1107 421.888 92.3613C433.271 105.003 445.81 111.25 459.251 110.839C474.355 110.399 488.162 101.424 495.15 92.6839C516.819 65.6707 503.659 48.0726 497.01 41.7666C494.643 39.5081 492.022 37.6017 489.289 36.0472C474.58 57.1063 458.547 80.8638 458.293 81.2158L453.306 88.6656L447.107 82.2717C446.599 81.7437 434.793 69.3957 434.765 52.6774C434.737 42.8224 438.682 33.7008 446.459 25.6349C456.18 15.5453 470.579 13.8148 484.076 17.5984C488.472 11.4391 492.473 5.89567 495.629 1.73078L507.182 11.2044C504.646 14.5481 501.49 18.8303 498.024 23.6991C501.236 25.6643 504.223 27.952 506.928 30.5038C522.651 45.4035 530.795 72.1527 506.449 102.48C497.996 113.01 480.695 125.504 459.646 126.12C459.167 126.12 458.631 126.12 458.124 126.12ZM471.424 31.061C465.619 31.061 460.378 32.7915 456.913 36.4285C447.05 46.6647 448.91 56.9303 452.235 63.7056C457.673 55.6984 466.127 43.3211 474.552 31.2077C473.481 31.1197 472.467 31.061 471.424 31.061Z" fill="white"/>
<path d="M540.901 1.4668L539.886 125.974L554.962 126.12L555.976 1.58411L540.901 1.4668Z" fill="white"/>
<path d="M596.439 127.001V111.514C620.137 111.514 630.788 94.8254 635.014 84.8824C643.186 65.7298 641.326 41.1804 630.675 27.7764C623.18 18.3614 612.078 15.5751 598.609 19.7106C578.039 26.046 555.638 55.4055 555.159 104.915L540.788 104.739C541.38 46.9878 568.289 12.9646 594.692 4.81084C613.684 -1.02589 630.337 3.54964 641.608 17.6868C655.922 35.6663 658.656 66.639 648.117 91.3351C638.424 113.978 619.573 127.001 596.439 127.001Z" fill="white"/>
<path d="M688.299 124.683H672.604V47.0751L688.271 46.4298C688.299 46.8111 691.877 84.5591 717.237 94.1794C728.734 98.5496 739.188 97.7577 746.007 92.009C752.826 86.2309 755.362 76.3173 752.939 64.7905C746.514 34.3164 716.646 14.5185 716.336 14.3131L694.413 0H776.974V15.5744H741.921C752.206 25.9573 764.069 41.649 768.239 61.5935C771.818 78.6051 767.309 94.4141 756.151 103.858C744.852 113.42 728.621 115.209 711.602 108.757C701.43 104.885 693.85 98.1684 688.271 90.6012V124.683H688.299Z" fill="white"/>
<path d="M849.56 124.653C822.622 124.653 800.672 103.125 800.672 76.6396C800.672 50.1544 822.594 28.626 849.56 28.626C876.526 28.626 898.449 50.1837 898.449 76.6396C898.449 103.125 876.526 124.653 849.56 124.653ZM849.56 44.0537C831.245 44.0537 816.367 58.6602 816.367 76.6396C816.367 94.6191 831.245 109.226 849.56 109.226C867.876 109.226 882.754 94.6191 882.754 76.6396C882.754 58.6602 867.876 44.0537 849.56 44.0537Z" fill="white"/>
<path d="M903.943 0H795.177V15.897H903.943V0Z" fill="white"/>
<path d="M1007.98 92.794H996.01C996.01 62.7687 990.816 43.4191 979.68 31.8538C968.838 20.5943 950.929 15.3676 923.33 15.3676V2.5791C938.455 2.5791 950.796 4.05256 961.048 7.05509C972.238 10.3356 981.045 15.4511 988.032 22.6794C995.1 30.0189 1000.13 39.3879 1003.4 51.3424C1006.48 62.6019 1007.98 76.1688 1007.98 92.794Z" fill="white"/>
<path fill-rule="evenodd" clip-rule="evenodd" d="M922.259 1.4668H923.33C938.516 1.4668 950.962 2.94557 961.339 5.98452L961.339 5.98461C972.675 9.30781 981.651 14.5081 988.788 21.8913L988.79 21.8928C996.009 29.3899 1001.12 38.9366 1004.43 51.0386C1007.54 62.4286 1009.05 76.1052 1009.05 92.7937V93.9057H994.939V92.7937C994.939 62.8409 989.746 43.8795 978.923 32.6398C968.393 21.7037 950.854 16.4794 923.33 16.4794H922.259V1.4668ZM924.401 3.69339V14.258C951.477 14.3919 969.429 19.6344 980.437 31.0672C991.746 42.811 996.951 62.2088 997.078 91.6817H1006.9C1006.84 75.6283 1005.34 62.5247 1002.37 51.6459C999.143 39.8391 994.191 30.6477 987.276 23.4659C980.439 16.3931 971.801 11.3629 960.758 8.12514M924.401 3.69339C938.974 3.76163 950.87 5.2296 960.757 8.12505L924.401 3.69339Z" fill="white"/>
<path d="M1007.98 97.5752H996.01C996.01 76.5575 991.994 64.4362 982.571 57.0967C972.078 48.8953 953.794 45.2534 923.33 45.2534V32.4648C939.659 32.4648 952.669 33.4935 963.11 35.662C974.299 37.9695 982.973 41.5836 989.612 46.7825C996.411 52.0925 1001.15 59.015 1004.12 67.967C1006.74 75.8903 1007.98 85.3149 1007.98 97.5752Z" fill="white"/>
<path fill-rule="evenodd" clip-rule="evenodd" d="M922.259 31.3535H923.33C939.695 31.3535 952.783 32.3837 963.319 34.5721C974.608 36.9002 983.448 40.5641 990.256 45.8953C997.239 51.3484 1002.1 58.4602 1005.13 67.6053L1005.13 67.6061C1007.81 75.6858 1009.05 85.2436 1009.05 97.5759V98.688H994.939V97.5759C994.939 76.6617 990.937 65.0031 981.929 57.987L981.927 57.986C971.747 50.0292 953.8 46.3662 923.33 46.3662H922.259V31.3535ZM924.401 33.5791V44.1436C954.225 44.228 972.536 47.8623 983.215 56.2089C992.879 63.7365 996.936 76.0124 997.077 96.4639H1006.9C1006.83 84.8197 1005.6 75.8582 1003.11 68.3293C1000.2 59.5713 995.584 52.8386 988.968 47.672L988.967 47.6711C982.497 42.6048 973.991 39.0404 962.901 36.7535L962.9 36.7532C952.784 34.652 940.191 33.6234 924.401 33.5791Z" fill="white"/>
<path d="M952.402 123.403C933.931 123.32 924.293 108.641 924.293 94.2118C924.293 79.7829 933.931 65.1039 952.375 65.0205H952.428C970.873 65.1039 980.51 79.7829 980.51 94.2118C980.51 108.668 970.846 123.32 952.402 123.403ZM952.402 76.9194C941.025 76.975 935.938 85.649 935.938 94.2118C935.938 102.775 941.025 111.449 952.402 111.504C963.779 111.449 968.865 102.775 968.865 94.2118C968.865 85.649 963.779 76.975 952.402 76.9194Z" fill="white"/>
<path fill-rule="evenodd" clip-rule="evenodd" d="M952.372 63.7695H952.431L952.434 63.7695C971.661 63.8565 981.715 79.2255 981.715 94.2118C981.715 109.228 971.632 124.567 952.407 124.654L952.402 124.654L952.396 124.654C933.143 124.567 923.089 109.199 923.089 94.2118C923.089 79.2255 933.142 63.8565 952.37 63.7695L952.372 63.7695ZM952.426 66.2716H952.378C934.718 66.3529 925.498 80.3412 925.498 94.2118C925.498 108.081 934.716 122.069 952.402 122.152C970.062 122.069 979.305 108.107 979.305 94.2118C979.305 80.3412 970.085 66.3529 952.426 66.2716ZM952.402 75.6684L952.407 75.6685C958.417 75.6978 962.874 78.0179 965.812 81.5587C968.727 85.0714 970.07 89.6876 970.07 94.2118C970.07 98.736 968.727 103.352 965.812 106.865C962.874 110.406 958.417 112.726 952.407 112.755L952.402 112.755L952.396 112.755C946.386 112.726 941.93 110.406 938.991 106.865C936.076 103.352 934.734 98.736 934.734 94.2118C934.734 89.6876 936.076 85.0714 938.991 81.5587C941.93 78.0179 946.386 75.6978 952.396 75.6685L952.402 75.6684ZM940.816 83.1922C938.344 86.1712 937.143 90.1733 937.143 94.2118C937.143 98.2504 938.344 102.252 940.816 105.231C943.264 108.181 947.037 110.225 952.402 110.253C957.766 110.225 961.539 108.181 963.987 105.231C966.46 102.252 967.66 98.2504 967.66 94.2118C967.66 90.1733 966.46 86.1712 963.987 83.1922C961.539 80.2426 957.766 78.1982 952.402 78.1706C947.037 78.1982 943.264 80.2426 940.816 83.1922Z" fill="white"/>
<path d="M1131 0H1027.64V15.3691H1131V0Z" fill="white"/>
<path d="M1130.94 34.6094H1027.36V50.0078H1130.94V34.6094Z" fill="white"/>
<path fill-rule="evenodd" clip-rule="evenodd" d="M1126.6 84.6221C1123.19 94.913 1117.52 102.955 1109.21 110.946C1098.56 121.179 1084.28 124.794 1070.3 126.117C1060.23 127.07 1049.31 126.885 1039.11 126.711C1035.25 126.646 1031.5 126.582 1027.93 126.582V110.451C1032.07 110.451 1036.17 110.52 1040.22 110.589C1050.11 110.758 1059.71 110.921 1068.89 110.052C1081.72 108.838 1091.82 105.704 1098.69 99.0946C1105.64 92.4156 1109.58 86.5211 1111.96 79.3549C1114.42 71.9241 1115.42 62.525 1115.42 48.3945H1130.92C1130.92 63.017 1129.93 74.5957 1126.6 84.6221Z" fill="white"/>
</svg>
