<svg width="555" height="306" viewBox="0 0 555 306" fill="none" xmlns="http://www.w3.org/2000/svg">
<path d="M7.10147 98.1297L4.50118 101.165L8.366 102.175L8.36619 102.175L8.36693 102.175L8.36811 102.175L8.37076 102.176L8.40048 102.184C8.42914 102.192 8.47531 102.204 8.53791 102.222C8.66315 102.257 8.854 102.312 9.10201 102.388C9.59837 102.54 10.3217 102.774 11.2048 103.095C12.9764 103.738 15.3639 104.723 17.8421 106.088C22.9133 108.881 27.8189 112.96 29.2848 118.467C31.0158 124.969 30.5404 135.743 29.5258 145.241C29.0262 149.918 28.4108 154.167 27.92 157.247C27.6747 158.786 27.4609 160.031 27.3089 160.889C27.2328 161.318 27.1723 161.65 27.131 161.874L27.1164 161.952C27.1027 162.026 27.0918 162.084 27.0839 162.126L27.0721 162.189L27.0693 162.203L27.0687 162.207L27.0686 162.207L27.0686 162.207L27.0592 162.256L27.0518 162.305C24.5293 179.045 24.8498 192.699 28.743 205.479C32.6332 218.249 40.0234 229.925 51.2741 242.815L51.357 242.91L51.449 242.996C68.5624 259.016 85.4667 267.789 101.739 270.686C117.242 273.446 131.984 270.837 145.53 264.352C166.281 296.16 206.564 293.393 224.658 273.593C232.212 283.587 241.445 289.523 251.555 290.156C261.789 290.797 272.263 285.962 282.064 275.704C291.647 288.875 304.441 295.22 317.394 296.074C330.315 296.926 343.243 292.308 353.15 283.853C358.815 289.344 363.998 292.798 369.689 292.916C375.109 293.029 380.298 290.11 386.101 284.854C389.778 293.713 395.501 299.251 402.388 301.444C410.125 303.907 418.713 301.948 426.454 296.834C438.789 288.684 454.938 271.374 469.844 250.942C484.784 230.464 498.691 206.556 506.415 185.012C509.574 176.202 518.514 167.703 527.104 161.244C531.335 158.062 535.363 155.461 538.334 153.656C539.818 152.754 541.035 152.053 541.877 151.58C542.297 151.343 542.624 151.164 542.844 151.044C542.953 150.985 543.036 150.94 543.091 150.911L543.15 150.879L543.164 150.872L543.166 150.871L548.176 148.228L542.848 146.307L542.846 146.307L542.836 146.303L542.79 146.287C542.749 146.271 542.686 146.248 542.602 146.217C542.434 146.155 542.182 146.061 541.854 145.936C541.198 145.686 540.235 145.311 539.024 144.82C536.6 143.836 533.183 142.385 529.228 140.52C521.297 136.78 511.293 131.418 502.787 124.875C494.626 118.597 488.062 110.839 482.115 102.619C479.142 98.5094 476.339 94.3077 473.565 90.1246L472.96 89.2115C470.399 85.3485 467.851 81.5047 465.241 77.8335C453.977 61.9895 441.078 48.6657 418.546 48.6657C387.673 48.6657 370.54 58.9267 357.213 70.8326C353.917 73.777 350.862 76.8133 347.919 79.7763C347.513 80.1842 347.111 80.5902 346.71 80.9944C344.184 83.542 341.732 86.0141 339.217 88.3679C333.405 93.8067 327.406 98.4619 319.96 101.49C304.736 107.679 285.667 109.295 267.704 108.016C249.732 106.735 233.212 102.582 223.135 97.5232C218.463 95.1777 213.26 90.1241 206.911 83.3356C205.483 81.8087 204.004 80.203 202.472 78.5394C197.321 72.9458 191.566 66.6962 185.09 60.5753C168.228 44.6388 146.107 29.1987 115.228 26.8678C80.2533 24.2276 58.4644 35.8003 42.735 51.3573C34.9335 59.0734 28.6597 67.73 23.0298 75.9444C21.9042 77.5867 20.8076 79.206 19.7315 80.7952C15.3754 87.2278 11.3542 93.1657 7.10147 98.1297Z" fill="#B4EB14" stroke="black" stroke-width="5"/>
<path d="M364.048 171.261C366.506 185.225 364.969 198.416 360.625 208.428C356.272 218.462 349.258 225.021 340.851 226.506C332.443 227.991 323.613 224.23 316.096 216.293C308.595 208.373 302.646 196.504 300.188 182.54C297.73 168.575 299.267 155.384 303.611 145.372C307.965 135.338 314.979 128.779 323.386 127.294C331.793 125.809 340.624 129.57 348.14 137.507C355.641 145.427 361.59 157.296 364.048 171.261Z" fill="white" stroke="black" stroke-width="5"/>
<path d="M469.695 127.6C472.575 143.959 470.778 159.431 465.674 171.194C460.561 182.98 452.286 190.762 442.298 192.526C432.309 194.291 421.876 189.812 413.047 180.489C404.234 171.184 397.263 157.26 394.383 140.902C391.504 124.544 393.3 109.072 398.404 97.3081C403.518 85.5226 411.792 77.7403 421.781 75.9761C431.769 74.2119 442.202 78.6901 451.031 88.0131C459.844 97.3189 466.816 111.242 469.695 127.6Z" fill="white" stroke="black" stroke-width="5"/>
<path d="M338.937 150.218C340.43 160.933 334.584 172.333 331.474 176.694C343.167 178.937 350.858 189.257 353.242 194.137C351.003 182.425 356.248 172.645 359.15 169.218C351.936 169.468 342.669 156.655 338.937 150.218Z" fill="black" stroke="black" stroke-width="6"/>
<path d="M445.289 108.79C446.782 119.505 440.935 130.906 437.826 135.266C449.518 137.509 457.209 147.83 459.593 152.71C457.354 140.998 462.599 131.217 465.502 127.791C458.287 128.04 449.021 115.227 445.289 108.79Z" fill="black" stroke="black" stroke-width="6"/>
<path d="M82.1227 172.275C81.3971 150.264 86.7251 101.506 113.842 82.5674" stroke="black" stroke-width="5"/>
<path d="M97.9822 153.898C96.7383 144.346 98.1065 120.07 113.531 99.3877" stroke="black" stroke-width="5"/>
<path d="M122.238 111.536C118.403 116.728 111.354 129.291 113.842 138.012" stroke="black" stroke-width="5"/>
<path d="M297.794 57.7544L295.4 57.2382L294.835 59.622C294.538 60.8769 293.904 62.3302 293.039 64.2539C293.005 64.3299 292.971 64.4066 292.936 64.4837C292.127 66.2808 291.182 68.3809 290.421 70.7144C288.804 75.6711 288 81.7237 290.553 89.0542C291.785 92.5924 295.053 94.8451 298.532 96.0893C302.078 97.3577 306.316 97.7684 310.342 97.2939C314.352 96.8213 318.406 95.4382 321.407 92.8573C324.504 90.1932 326.347 86.3467 325.878 81.4519C325.151 73.8834 319.94 68.3779 314.31 64.6609C308.646 60.9215 302.122 58.6871 297.794 57.7544Z" fill="#B4EB14" stroke="black" stroke-width="5"/>
<path d="M396.317 3.55613L393.923 3.03995L393.358 5.42371C393.061 6.67866 392.427 8.13193 391.562 10.0556C391.528 10.1317 391.494 10.2083 391.459 10.2855C390.65 12.0825 389.705 14.1826 388.944 16.5162C387.327 21.4728 386.523 27.5255 389.076 34.8559C390.267 38.2745 393.117 40.5155 396.283 41.7262C399.456 42.9394 403.189 43.2302 406.704 42.6072C410.218 41.9843 413.714 40.4094 416.245 37.6728C418.83 34.8776 420.244 31.0421 419.79 26.3192C419.09 19.0245 415.314 13.7455 410.695 10.116C406.122 6.52228 400.675 4.49534 396.317 3.55613Z" fill="#B4EB14" stroke="black" stroke-width="5"/>
</svg>
