<svg width="583" height="399" viewBox="0 0 583 399" fill="none" xmlns="http://www.w3.org/2000/svg">
<path d="M305.904 19.2042L302.938 10.3696L301.084 19.5028L265.417 195.241L237.502 19.6076L236.232 11.6176L232.773 18.9311L172.949 145.418C104.133 134.038 61.4756 142.518 35.9548 161.701C10.121 181.119 2.5 210.995 2.5 240.293C2.5 272.652 14.9284 299.594 38.5892 315.796C62.0185 331.839 96.0111 337.043 138.788 327.19C146.656 332.143 150.119 337.072 151.085 341.577C152.085 346.242 150.552 351.116 147.12 356.073C140.191 366.082 126.422 375.105 116.274 380.64L109.152 384.524L117.225 385.323C158.592 389.413 192.864 375.049 206.442 342.225C214.296 349.44 218.812 355.267 221.453 361.463C224.387 368.348 225.128 375.956 225.128 387V392.629L229.304 388.855C238.268 380.753 244.547 373.853 249.536 366.108C253.567 359.852 256.709 353.117 259.763 344.877C262.971 352.019 266.468 357.91 270.949 363.488C276.605 370.53 283.754 376.979 293.653 384.797L298.228 388.41L297.692 382.605C296.523 369.944 296.514 361.269 297.773 354.182C298.698 348.974 300.322 344.549 302.781 339.973C305.672 348.821 309.261 355.873 314.375 362.349C320.476 370.076 328.646 376.849 340.048 384.879L347.169 389.894L343.792 381.865C338.777 369.944 336.42 361.712 335.948 354.728C335.619 349.854 336.202 345.49 337.561 340.789C342.593 351.925 348.414 360.075 356.684 366.226C366.332 373.403 379.049 377.657 397.017 381.124L403.336 382.344L399.498 377.179C390.751 365.406 384.81 355.875 381.307 347.997C377.8 340.112 376.839 334.111 377.731 329.291C378.61 324.544 381.363 320.55 386.143 316.799C389.247 314.363 393.147 312.078 397.819 309.806C394.757 314.94 393.109 320.004 392.855 324.969C392.473 332.454 395.28 339.34 400.485 345.486C410.77 357.631 430.724 367.281 456.082 374.141L462.445 375.862L458.824 370.354C458.203 369.409 457.591 368.48 456.989 367.566C448.343 354.448 441.746 344.437 439.476 334.073C437.215 323.755 439.232 312.793 449.161 297.783C474.365 312.212 506.532 317.315 532.845 307.186C560.157 296.673 580.5 270.024 580.5 222.243V222.128L580.489 222.013C575.823 171.692 544.726 138.852 500.898 125.609C457.881 112.611 402.706 118.483 348.043 144.705L305.904 19.2042Z" fill="#C4C4C4" stroke="black" stroke-width="5"/>
<path d="M228.196 211.431L228.151 211.261L228.084 211.099C217.727 186.294 196.82 175.566 176.769 177.467C157.24 179.318 138.86 193.12 132.171 216.681C119.989 218.097 110.078 224.452 104.782 233.538C99.1987 243.117 98.9263 255.426 106.063 267.483L106.15 267.631L106.257 267.765C113.828 277.289 123.74 282.335 133.59 282.65C142.842 282.947 151.816 279.058 158.437 271.199C178.39 280.706 198.443 277.102 212.276 265.586C226.518 253.729 233.989 233.637 228.196 211.431Z" fill="white" stroke="black" stroke-width="5"/>
<path d="M301.617 211.807L301.661 211.637L301.729 211.475C312.086 186.67 332.993 175.942 353.044 177.843C372.572 179.694 390.953 193.496 397.642 217.057C409.824 218.473 419.735 224.828 425.031 233.914C430.614 243.493 430.887 255.802 423.75 267.859L423.663 268.007L423.556 268.141C415.985 277.665 406.073 282.71 396.222 283.026C386.971 283.323 377.996 279.434 371.376 271.575C351.423 281.082 331.369 277.478 317.537 265.962C303.295 254.105 295.824 234.013 301.617 211.807Z" fill="white" stroke="black" stroke-width="5"/>
</svg>
