<svg width="513" height="397" viewBox="0 0 513 397" fill="none" xmlns="http://www.w3.org/2000/svg">
<path d="M278.639 103.472L317.219 222.874L299.327 234.591L304.359 247.982C345.073 222.031 367.624 208.587 398.292 222.874L423.453 247.982C372.516 256.717 354.681 288.713 304.359 306.01C257.887 293.222 235.327 284.876 231.393 270.858V255.515C217.695 268.069 210.51 260.35 200.921 255.515C192.534 296.525 177.38 313.95 171.287 337.813C192.165 366.837 202.503 382.478 182.47 392.493C149.696 399.943 143.113 379.464 133.826 337.813C135.38 300.97 137.786 282.17 147.804 255.515C122.798 214.81 112.727 189.716 121.525 148.666C87.4187 163.731 68.9675 159.825 53.312 135.833C53.312 148.666 49.3981 173.774 24.7967 173.774C-3.71879 173.774 0.726129 140.297 10.2593 123.001C28.7105 89.5234 62.8169 64.7461 85.7412 68.3206C108.665 71.8952 121.361 108.005 138.858 135.833C153.242 156.091 164.373 166.474 189.739 165.405C218.813 131.37 241.458 118.333 278.639 103.472Z" fill="#5546FF"/>
<path d="M232.791 239.055L231.393 255.515M231.393 255.515V270.858C235.327 284.876 257.887 293.222 304.359 306.01C354.681 288.713 372.516 256.717 423.453 247.982L398.292 222.874C367.624 208.587 345.073 222.031 304.359 247.982L299.327 234.591L317.219 222.874L278.639 103.472C241.458 118.333 218.813 131.37 189.739 165.405C164.373 166.474 153.242 156.091 138.858 135.833C121.361 108.005 108.665 71.8952 85.7412 68.3206C62.8169 64.7461 28.7105 89.5234 10.2593 123.001C0.726129 140.297 -3.71879 173.774 24.7967 173.774C49.3981 173.774 53.312 148.666 53.312 135.833C68.9675 159.825 87.4187 163.731 121.525 148.666C112.727 189.716 122.798 214.81 147.804 255.515M231.393 255.515C217.695 268.069 210.51 260.35 200.921 255.515M200.921 255.515C192.534 296.525 177.38 313.95 171.287 337.813C192.165 366.837 202.503 382.478 182.47 392.493C149.696 399.943 143.113 379.464 133.826 337.813C135.38 300.97 137.786 282.17 147.804 255.515M200.921 255.515C193.414 247.857 189.669 245.002 184.147 243.519C162.912 240.796 156.925 245.494 147.804 255.515" stroke="black" stroke-width="5"/>
<path d="M292.059 143.1C319.456 144.761 329.52 167.316 318.337 172.1C307.155 176.884 300.445 154.804 308.273 139.193C313.198 129.372 322.21 130.498 327.283 131.94C346.908 137.518 347.971 154.725 341.262 157.594C333.434 160.94 323.37 145.877 325.606 131.94C327.283 124.686 332.663 115.908 345.735 117.434C364.745 119.653 368.1 137.519 361.949 141.983C354.614 147.307 341.262 124.674 349.089 109.661C352.379 103.352 360.831 97.9309 370.336 100.734C390.551 107.646 393.26 123.569 384.873 128.034C375.927 131.939 365.797 113.617 373.132 100.125C377.682 91.7549 381.519 87.85 394.378 87.8496" stroke="black" stroke-width="5"/>
<path d="M419.539 31.4958C410.017 15.8732 399.97 -5.32913 380.96 6.38834C369.218 13.6257 366.934 21.89 377.045 47.6765C399.833 107.026 434.076 149.225 455.323 158.71C472.097 166.198 484.957 167.637 496.698 159.826C515.15 147.55 512.973 130.33 498.935 105.146C466.016 121.416 452.528 85.6181 419.539 31.4958Z" fill="#5546FF" stroke="black" stroke-width="5"/>
<path d="M441.749 90.7713C424.289 81.8717 412.327 58.9468 412.356 41.4362C412.388 22.6754 383.52 25.5193 392.549 46.4714C401.117 69.8128 408.902 81.0816 418.936 98.8302C434.462 126.294 458.357 99.2365 441.749 90.7713Z" fill="white" stroke="black" stroke-width="5"/>
</svg>
