<svg width="631" height="348" viewBox="0 0 631 348" fill="none" xmlns="http://www.w3.org/2000/svg">
<path d="M7.10128 111.523L4.50184 114.558L8.36618 115.568L8.36636 115.568L8.36683 115.568L8.36797 115.568L8.3726 115.57L8.40821 115.579C8.44208 115.589 8.49597 115.603 8.56868 115.624C8.71412 115.665 8.93465 115.729 9.22063 115.816C9.79292 115.991 10.6253 116.26 11.6408 116.629C13.6771 117.369 16.4228 118.502 19.2746 120.073C25.093 123.278 30.808 128.003 32.5217 134.441C34.5187 141.944 33.9657 154.321 32.807 165.171C32.2354 170.523 31.5313 175.385 30.9698 178.91C30.6891 180.671 30.4445 182.096 30.2705 183.078C30.1835 183.569 30.1141 183.95 30.0668 184.206C30.0431 184.334 30.0249 184.431 30.0128 184.496L29.9992 184.568L29.9959 184.585L29.9952 184.589L29.9951 184.59L29.9857 184.638L29.9783 184.687C27.1011 203.786 27.4713 219.333 31.8991 233.872C36.324 248.4 44.7339 261.7 57.5702 276.41L57.6531 276.505L57.7452 276.591C77.2609 294.864 96.5154 304.85 115.025 308.146C132.765 311.305 149.63 308.284 165.126 300.801C188.761 337.394 235.003 334.071 255.434 311.26C264.071 322.836 274.631 329.671 286.163 330.393C297.821 331.124 309.801 325.564 321.038 313.675C331.953 328.88 346.586 336.18 361.391 337.157C376.163 338.131 390.952 332.804 402.237 323.063C408.789 329.458 414.689 333.413 421.127 333.547C427.298 333.675 433.247 330.285 440.008 324.082C444.17 334.409 450.723 340.804 458.589 343.309C467.298 346.082 476.999 343.887 485.782 338.083C499.822 328.805 518.244 309.062 535.268 285.722C552.326 262.336 568.196 235.044 577.006 210.465C580.653 200.289 590.946 190.521 600.765 183.135C605.612 179.49 610.225 176.511 613.626 174.444C615.326 173.411 616.719 172.608 617.684 172.065C618.167 171.794 618.542 171.588 618.794 171.451C618.92 171.382 619.015 171.331 619.078 171.297L619.147 171.26L619.163 171.252L619.166 171.25L624.175 168.608L618.848 166.687L618.846 166.686L618.834 166.682L618.781 166.663L618.737 166.647C618.693 166.63 618.635 166.609 618.564 166.583C618.371 166.511 618.083 166.404 617.707 166.26C616.954 165.973 615.852 165.545 614.465 164.982C611.691 163.856 607.781 162.195 603.255 160.06C594.183 155.781 582.726 149.64 572.979 142.14C563.615 134.936 556.092 126.039 549.288 116.631C545.885 111.928 542.68 107.12 539.51 102.34L538.822 101.302C535.895 96.8842 532.985 92.4944 530.006 88.3023C517.152 70.2184 502.506 55.1176 476.942 55.1176C441.769 55.1176 422.274 66.8027 407.101 80.3607C403.344 83.718 399.86 87.1816 396.497 90.5674C396.035 91.0325 395.576 91.4957 395.119 91.957C392.232 94.8688 389.425 97.6999 386.545 100.395C379.89 106.625 373 111.978 364.433 115.462C346.971 122.563 325.122 124.41 304.567 122.945C284.003 121.48 265.077 116.726 253.509 110.917C248.104 108.203 242.117 102.377 234.871 94.6275C233.235 92.8788 231.544 91.0414 229.792 89.1386C223.908 82.7472 217.344 75.6172 209.954 68.6312C190.717 50.446 165.515 32.8599 130.349 30.2047C90.4958 27.1957 65.6994 40.3791 47.7957 58.0908C38.907 66.8841 31.7544 76.7541 25.3242 86.1383C24.0415 88.0104 22.7907 89.8578 21.5625 91.672C16.584 99.0255 11.9749 105.833 7.10128 111.523Z" fill="#B4EB14" stroke="black" stroke-width="5"/>
<path d="M415.025 194.807C417.845 210.826 416.085 225.974 411.09 237.489C406.086 249.026 397.992 256.634 388.231 258.359C378.47 260.083 368.267 255.707 359.626 246.581C351.001 237.472 344.177 223.84 341.358 207.822C338.538 191.803 340.298 176.655 345.293 165.14C350.297 153.603 358.391 145.995 368.152 144.27C377.913 142.546 388.116 146.922 396.757 156.048C405.382 165.157 412.206 178.789 415.025 194.807Z" fill="white" stroke="black" stroke-width="5"/>
<path d="M535.736 144.91C539.037 163.664 536.981 181.419 531.118 194.936C525.245 208.475 515.711 217.481 504.143 219.525C492.575 221.568 480.541 216.372 470.401 205.662C460.277 194.969 452.284 178.99 448.983 160.236C445.683 141.481 447.739 123.727 453.602 110.21C459.475 96.671 469.009 87.6647 480.577 85.6211C492.145 83.5775 504.178 88.7736 514.319 99.4836C524.443 110.176 532.436 126.156 535.736 144.91Z" fill="white" stroke="black" stroke-width="5"/>
<path d="M92.5494 196.029C91.7204 170.873 97.808 115.15 128.791 93.5059" stroke="black" stroke-width="5"/>
<path d="M110.67 175.026C109.249 164.109 110.812 136.366 128.436 112.729" stroke="black" stroke-width="5"/>
<path d="M138.384 126.612C134.002 132.545 125.949 146.903 128.791 156.871" stroke="black" stroke-width="5"/>
<path d="M338.899 65.4976L336.504 64.9812L335.939 67.3652C335.59 68.839 334.85 70.5324 333.865 72.7231C333.827 72.8088 333.788 72.8951 333.749 72.982C332.824 75.0381 331.751 77.4227 330.887 80.0708C329.058 85.68 328.151 92.515 331.036 100.802C332.393 104.7 336.009 107.219 339.936 108.623C343.93 110.052 348.717 110.518 353.269 109.982C357.804 109.447 362.362 107.885 365.72 104.995C369.176 102.022 371.231 97.7385 370.706 92.2655C369.891 83.7716 364.041 77.5616 357.648 73.3398C351.221 69.0956 343.81 66.5564 338.899 65.4976Z" fill="#B4EB14" stroke="black" stroke-width="5"/>
<path d="M451.47 3.55615L449.075 3.0398L448.51 5.42384C448.161 6.89762 447.421 8.59103 446.436 10.7817C446.398 10.8674 446.359 10.9537 446.32 11.0406C445.395 13.0967 444.322 15.4812 443.458 18.1294C441.629 23.7386 440.722 30.5736 443.607 38.8606C444.923 42.6386 448.08 45.1374 451.633 46.4963C455.192 47.8577 459.391 48.1869 463.35 47.4852C467.308 46.7834 471.224 45.0124 474.052 41.9547C476.933 38.8385 478.518 34.5573 478.01 29.2561C476.423 12.7256 461.09 5.63035 451.47 3.55615Z" fill="#B4EB14" stroke="black" stroke-width="5"/>
</svg>
