<svg width="534" height="117" viewBox="0 0 534 117" fill="none" xmlns="http://www.w3.org/2000/svg">
<path d="M465.744 108.376H477.52C477.264 107.224 476.88 103.64 476.624 100.184C476.24 93.144 476.112 67.672 476.112 62.04L466.384 57.048C466.512 67.288 466.768 91.992 466.384 100.312C466.384 101.848 466 106.84 465.744 108.376ZM533.84 90.456L533.584 80.6C514.256 82.008 486.864 82.904 464.848 82.904C446.032 82.904 434.512 82.648 427.344 82.264L427.216 91.736C433.232 91.864 449.104 91.864 464.72 91.864C484.432 91.864 516.432 90.712 533.84 90.456ZM466.64 53.336L473.68 56.92C471.632 43.224 476.752 36.568 484.688 36.568C491.728 36.568 497.744 41.176 497.744 49.24C497.744 57.56 491.472 62.808 484.688 62.808C477.776 62.808 472.144 57.944 472.144 46.424C472.144 25.304 485.712 13.912 509.008 8.408L500.432 0.0879998C470.736 8.92 462.288 28.12 462.288 45.528C462.288 60.248 469.84 71.256 484.688 71.256C496.848 71.256 507.344 61.784 507.344 49.112C507.344 35.16 496.976 27.608 486.224 27.608C474.576 27.608 466.64 36.184 466.64 53.336ZM351.44 92.12H360.656C360.656 85.08 360.656 71.256 360.656 62.168C360.656 48.984 359.12 30.04 359.12 22.744C359.12 15.96 361.552 10.84 371.664 10.84C380.496 10.84 386.256 14.04 386.256 20.44C386.256 25.944 380.24 29.784 371.152 29.784C356.048 29.784 340.688 21.336 328.528 8.792L323.152 17.752C332.624 26.328 348.24 37.464 370.896 37.464C387.792 37.464 395.344 28.888 395.344 19.8C395.344 7.768 384.848 1.88 370.768 1.88C356.944 1.88 349.776 8.024 349.776 18.392C349.776 28.632 351.44 46.424 351.44 62.552C351.44 70.616 351.44 82.904 351.44 92.12ZM391.504 67.16V57.816C368.592 56.536 343.888 57.816 327.504 59.736V69.08C345.04 67.032 368.464 65.368 391.504 67.16ZM389.584 96.856V87.896C368.848 86.872 349.136 87.896 334.928 89.304V98.264C349.392 96.344 368.976 95.32 389.584 96.856ZM411.472 102.104L422.864 103.128C422.864 100.44 423.248 96.984 423.632 94.04C425.168 83.544 429.392 59.608 429.392 40.792C429.392 23.512 427.216 9.432 424.528 0.344L415.44 0.984C415.568 2.392 415.824 4.184 415.824 5.464C415.952 7 415.568 9.432 415.184 11.224C413.904 17.368 409.296 30.68 406.096 39.384L411.344 43.608C413.648 38.488 416.72 30.424 418.768 24.536C419.536 30.808 419.92 36.312 419.92 42.584C419.92 56.92 416.336 81.752 413.776 93.656C413.392 95.96 412.24 99.928 411.472 102.104ZM334.672 103.384C334.672 107.608 331.344 111.064 327.12 111.064C322.896 111.064 319.312 107.608 319.312 103.384C319.312 99.16 322.896 95.832 327.12 95.832C331.344 95.832 334.672 99.16 334.672 103.384ZM340.432 103.384C340.432 95.96 334.544 90.072 327.12 90.072C319.696 90.072 313.68 95.96 313.68 103.384C313.68 110.808 319.696 116.824 327.12 116.824C334.544 116.824 340.432 110.808 340.432 103.384ZM314.32 58.072L309.968 47.448C301.776 50.776 273.744 62.424 258 62.424C244.816 62.424 236.24 54.36 236.24 43.48C236.24 22.616 260.56 14.68 288.336 13.912L284.112 4.056C249.68 6.104 225.872 18.648 225.872 43.352C225.872 60.76 239.056 71.64 257.232 71.64C272.208 71.64 293.328 63.96 302.416 61.144C306.384 59.864 310.608 58.712 314.32 58.072ZM195.792 102.488L195.28 91.992C192.464 92.248 188.752 92.632 185.424 92.888C179.92 93.4 157.52 94.424 151.76 94.808C159.952 87.64 180.176 69.848 194.128 60.12C200.656 59.352 209.36 58.328 216.272 57.56L215.376 47.96C200.016 50.52 182.864 52.568 169.168 53.72C175.824 49.752 184.144 40.408 184.144 29.528C184.144 9.816 167.12 0.0879998 135.76 1.368L133.712 11.864C138.32 11.48 144.464 11.224 152.016 12.12C163.792 13.784 174.16 18.136 174.16 31.064C174.16 43.096 161.872 53.592 149.456 55.384C141.776 56.536 129.488 56.664 116.944 56.024L117.072 65.496C135.376 65.496 158.416 63.832 177.872 61.656C167.632 69.848 149.2 85.336 139.6 93.144C137.808 94.68 134.48 96.856 132.816 98.008L139.216 105.304C140.752 104.792 143.184 104.28 146.256 104.024C153.552 103.256 179.92 102.104 185.552 102.104C189.52 102.104 192.592 102.232 195.792 102.488ZM62.032 75.992L55.632 69.976C50.896 73.304 43.6 78.936 40.528 81.496L42.96 88.152C50.64 93.784 64.72 100.824 74.576 104.792L80.464 97.496C70.608 93.528 58.704 87 53.072 82.52C54.992 80.856 58.704 78.168 62.032 75.992ZM86.736 14.808L85.328 4.312C79.568 3.16 72.528 2.264 64.336 2.264C55.12 2.264 42.32 5.72 42.32 21.464C42.32 33.112 50.768 44.376 62.8 56.92C65.744 60.12 69.072 63.576 72.144 66.904L79.696 60.248C76.24 57.304 72.272 53.592 69.456 50.648C62.416 42.84 53.072 31.32 53.072 22.616C53.072 14.296 60.24 11.992 66.128 11.992C74.064 11.992 80.208 13.016 86.736 14.808ZM12.88 10.072L3.408 15.192C7.376 26.584 17.104 44.888 25.808 55.256L34.256 50.52C25.424 40.536 16.464 22.232 12.88 10.072ZM82.384 35.032L88.4 42.712C95.696 34.648 110.544 23.256 121.168 17.624L115.024 9.048C102.608 16.472 89.808 27.352 82.384 35.032ZM25.68 91.992L32.464 89.048C29.008 84.184 24.656 76.504 22.096 71.256L15.184 74.328C17.744 79.576 22.48 87.384 25.68 91.992ZM11.6 97.112L18.384 94.168C14.672 89.432 10.448 82.136 7.632 76.504L0.848 79.704C3.152 84.44 8.144 92.376 11.6 97.112Z" fill="white"/>
</svg>
