<svg width="241" height="247" viewBox="0 0 241 247" fill="none" xmlns="http://www.w3.org/2000/svg">
<path d="M106.045 7.89628C113.329 -1.62605 127.671 -1.62605 134.955 7.89628C140.281 14.8594 149.815 17.0355 157.635 13.073C168.33 7.6541 181.251 13.8765 183.682 25.6163C185.46 34.201 193.105 40.2981 201.87 40.1211C213.857 39.879 222.798 51.0914 219.895 62.7234C217.772 71.2293 222.015 80.0399 229.989 83.6834C240.893 88.666 244.085 102.648 236.422 111.868C230.818 118.61 230.818 128.39 236.422 135.132C244.085 144.352 240.893 158.334 229.989 163.317C222.015 166.96 217.772 175.771 219.895 184.277C222.798 195.909 213.857 207.121 201.87 206.879C193.105 206.702 185.46 212.799 183.682 221.384C181.251 233.123 168.33 239.346 157.635 233.927C149.815 229.965 140.281 232.141 134.955 239.104C127.671 248.626 113.329 248.626 106.045 239.104C100.719 232.141 91.1849 229.965 83.3647 233.927C72.6704 239.346 59.7493 233.123 57.3181 221.384C55.5403 212.799 47.8948 206.702 39.1298 206.879C27.1433 207.121 18.2017 195.909 21.105 184.277C23.228 175.771 18.985 166.96 11.0112 163.317C0.106732 158.334 -3.0845 144.352 4.57821 135.132C10.1815 128.39 10.1815 118.61 4.57821 111.868C-3.0845 102.648 0.106731 88.666 11.0112 83.6834C18.985 80.0399 23.228 71.2293 21.105 62.7234C18.2017 51.0914 27.1433 39.879 39.1298 40.1211C47.8948 40.2981 55.5403 34.201 57.3181 25.6163C59.7493 13.8765 72.6704 7.6541 83.3647 13.073C91.1849 17.0355 100.719 14.8594 106.045 7.89628Z" fill="#B4EB14"/>
</svg>
