<svg width="202" height="202" viewBox="0 0 202 202" fill="none" xmlns="http://www.w3.org/2000/svg">
<path d="M186.359 105.974L186.429 104.674L191.397 102.769L186.546 102.507L186.609 101.347L193.039 101.695L192.952 103.302L187.471 105.375L192.696 108.041L192.612 109.607L186.181 109.259L186.241 108.141L191.092 108.403L186.359 105.974Z" fill="black"/>
<path d="M187.532 111.97C187.245 111.928 187.011 112.016 186.828 112.234C186.644 112.452 186.524 112.76 186.465 113.157C186.385 113.702 186.473 114.163 186.728 114.54C186.983 114.927 187.345 115.155 187.816 115.224L187.781 115.459C186.978 115.341 186.364 115.024 185.94 114.509C185.526 113.995 185.371 113.378 185.477 112.658C185.569 112.039 185.81 111.551 186.203 111.194C186.604 110.838 187.068 110.699 187.594 110.776C188.056 110.844 188.4 111.041 188.625 111.367C188.86 111.694 189.017 112.165 189.096 112.781L189.367 115.453L188.495 115.324L188.305 113.06C188.242 112.4 187.984 112.036 187.532 111.97ZM185.219 116.044L185.392 114.867L186.983 115.498L187.193 115.132L189.603 115.487C190.009 115.547 190.357 115.457 190.647 115.217C190.938 114.977 191.117 114.626 191.185 114.164C191.253 113.702 191.17 113.303 190.937 112.967C190.712 112.632 190.387 112.409 189.96 112.299L190.323 111.178C190.981 111.389 191.49 111.775 191.85 112.337C192.211 112.9 192.334 113.569 192.219 114.345C192.104 115.13 191.792 115.739 191.285 116.174C190.777 116.609 190.21 116.78 189.582 116.687L185.219 116.044Z" fill="black"/>
<path d="M187.446 121.622C187.41 122.035 187.493 122.384 187.697 122.669C187.907 122.966 188.203 123.158 188.586 123.244C189.123 123.366 189.613 123.228 190.057 122.831C190.508 122.445 190.82 121.875 190.991 121.119C191.156 120.391 191.117 119.76 190.874 119.227C190.629 118.702 190.185 118.3 189.54 118.02L189.109 119.099C189.496 119.292 189.758 119.529 189.895 119.809C190.031 120.098 190.053 120.442 189.962 120.843C189.863 121.28 189.689 121.604 189.441 121.816C189.19 122.036 188.909 122.112 188.6 122.042C188.372 121.99 188.205 121.861 188.099 121.655C187.99 121.458 187.968 121.219 188.032 120.937L188.348 119.544L187.351 119.318L187.035 120.711C186.971 120.993 186.852 121.201 186.679 121.334C186.503 121.476 186.297 121.52 186.06 121.466C185.705 121.386 185.449 121.184 185.293 120.862C185.134 120.548 185.104 120.173 185.203 119.736C185.292 119.345 185.472 119.055 185.745 118.868C186.017 118.681 186.392 118.589 186.869 118.592L186.959 117.435C186.22 117.402 185.618 117.567 185.153 117.93C184.688 118.294 184.373 118.84 184.208 119.568C184.039 120.314 184.087 120.966 184.353 121.524C184.626 122.093 185.063 122.446 185.664 122.582C186.019 122.663 186.341 122.611 186.632 122.428C186.92 122.254 187.137 121.973 187.282 121.585L187.446 121.622Z" fill="black"/>
<path d="M186.021 125.451C185.366 125.293 184.807 125.326 184.344 125.552C183.89 125.78 183.572 126.184 183.389 126.762C183.243 127.225 183.242 127.646 183.387 128.024C183.528 128.412 183.796 128.712 184.189 128.924L183.66 129.946C183.031 129.581 182.606 129.084 182.384 128.456C182.167 127.839 182.173 127.171 182.401 126.45C182.705 125.489 183.238 124.825 184 124.459C184.771 124.096 185.672 124.078 186.704 124.404C187.728 124.728 188.45 125.245 188.871 125.956C189.293 126.666 189.358 127.48 189.069 128.397C188.779 129.313 188.253 129.94 187.49 130.276C186.734 130.625 185.876 130.647 184.915 130.343L184.514 130.216L186.021 125.451ZM186.84 125.739L185.705 129.33C186.23 129.496 186.716 129.459 187.164 129.219C187.618 128.99 187.928 128.614 188.094 128.089C188.255 127.581 188.222 127.126 187.998 126.722C187.782 126.321 187.396 125.993 186.84 125.739Z" fill="black"/>
<path d="M181.907 132.78C182.436 132.626 183.062 132.698 183.786 132.998C184.511 133.298 185.001 133.688 185.257 134.168C185.509 134.656 185.517 135.185 185.282 135.754C185.046 136.323 184.67 136.683 184.153 136.832C183.633 136.991 183.011 136.92 182.286 136.62C181.562 136.32 181.068 135.928 180.803 135.445C180.544 134.974 180.532 134.454 180.768 133.884C181.003 133.315 181.383 132.947 181.907 132.78ZM183.904 132.714C182.878 132.289 181.999 132.167 181.267 132.349C180.54 132.543 180.025 133.006 179.722 133.739C179.411 134.489 179.436 135.232 179.798 135.968C180.165 136.716 180.858 137.301 181.875 137.722C182.858 138.13 183.728 138.212 184.485 137.97C185.251 137.731 185.792 137.228 186.11 136.461C186.425 135.702 186.391 134.991 186.009 134.328C185.632 133.677 184.93 133.139 183.904 132.714ZM178.747 129.653L178.302 130.727L180.824 131.771L182.534 132.07L182.506 132.468L185.093 133.539L185.349 133.251L186.774 134.236L187.219 133.162L178.747 129.653Z" fill="black"/>
<path d="M184.104 140.501L183.122 139.992L182.11 141.943L177.375 139.489L176.833 140.533L181.569 142.987L180.551 144.951L181.533 145.46L184.104 140.501Z" fill="black"/>
<path d="M177.506 146.066C176.841 145.65 176.238 145.471 175.695 145.528C175.161 145.59 174.736 145.874 174.419 146.38C174.097 146.894 174.025 147.405 174.202 147.913C174.383 148.433 174.806 148.902 175.47 149.318C176.127 149.729 176.725 149.899 177.264 149.83C177.806 149.773 178.238 149.487 178.56 148.973C178.877 148.466 178.943 147.957 178.757 147.444C178.579 146.937 178.162 146.477 177.506 146.066ZM178.13 145.069C179.063 145.654 179.637 146.338 179.851 147.122C180.068 147.918 179.927 148.716 179.426 149.515C178.956 150.267 178.304 150.728 177.469 150.9C176.63 151.079 175.756 150.884 174.846 150.315C173.913 149.73 173.333 149.037 173.108 148.236C172.891 147.439 173.035 146.637 173.54 145.83C174.041 145.031 174.696 144.556 175.508 144.403C176.322 144.263 177.196 144.485 178.13 145.069Z" fill="black"/>
<path d="M176.312 153.827L175.614 154.757L173.442 153.128L171.426 155.816L173.598 157.445L172.884 158.397L167.732 154.533L168.446 153.581L170.53 155.144L172.546 152.456L170.462 150.893L171.16 149.964L176.312 153.827Z" fill="black"/>
<path d="M172.055 159.392L167.182 155.181L166.423 156.06L170.458 159.548L168.023 162.365L168.86 163.089L172.055 159.392Z" fill="black"/>
<path d="M164.102 165.022L160.636 168.244L159.95 167.506L163.415 164.284L164.102 165.022Z" fill="black"/>
<path d="M150.115 170.996L151.176 170.241L155.76 172.944L152.945 168.984L153.892 168.311L157.623 173.56L156.311 174.493L151.276 171.493L152.443 177.242L151.165 178.151L147.434 172.902L148.346 172.253L151.161 176.213L150.115 170.996Z" fill="black"/>
<path d="M146.08 175.676C145.935 175.426 145.721 175.296 145.436 175.288C145.151 175.28 144.835 175.376 144.487 175.576C144.01 175.851 143.703 176.205 143.565 176.64C143.42 177.079 143.466 177.505 143.703 177.918L143.497 178.036C143.092 177.333 142.96 176.655 143.101 176.003C143.247 175.358 143.636 174.855 144.266 174.491C144.808 174.179 145.341 174.066 145.865 174.153C146.393 174.247 146.79 174.524 147.055 174.985C147.288 175.39 147.347 175.782 147.231 176.16C147.12 176.548 146.848 176.963 146.414 177.407L144.486 179.276L144.046 178.512L145.704 176.959C146.183 176.5 146.308 176.073 146.08 175.676ZM141.449 176.388L142.48 175.795L142.972 177.434L143.389 177.372L144.605 179.483C144.809 179.838 145.096 180.056 145.465 180.134C145.833 180.213 146.219 180.136 146.624 179.903C147.028 179.67 147.29 179.358 147.409 178.966C147.533 178.582 147.505 178.189 147.327 177.786L148.432 177.375C148.675 178.022 148.687 178.661 148.469 179.292C148.252 179.924 147.803 180.436 147.124 180.827C146.436 181.223 145.765 181.356 145.109 181.228C144.453 181.099 143.967 180.76 143.65 180.21L141.449 176.388Z" fill="black"/>
<path d="M138.43 181.608C138.085 181.837 137.863 182.12 137.766 182.456C137.665 182.805 137.699 183.157 137.869 183.51C138.108 184.006 138.521 184.304 139.108 184.405C139.691 184.518 140.331 184.407 141.029 184.071C141.702 183.747 142.172 183.324 142.439 182.802C142.697 182.284 142.735 181.686 142.553 181.007L141.44 181.341C141.53 181.764 141.508 182.116 141.374 182.398C141.232 182.684 140.976 182.916 140.606 183.094C140.202 183.288 139.84 183.354 139.52 183.29C139.191 183.231 138.957 183.059 138.82 182.773C138.719 182.562 138.716 182.352 138.811 182.14C138.897 181.933 139.071 181.766 139.332 181.641L140.618 181.022L140.175 180.101L138.888 180.72C138.628 180.845 138.391 180.881 138.179 180.828C137.959 180.779 137.796 180.645 137.691 180.426C137.533 180.098 137.531 179.773 137.686 179.449C137.833 179.13 138.108 178.873 138.512 178.679C138.874 178.505 139.212 178.466 139.528 178.563C139.844 178.66 140.149 178.896 140.444 179.272L141.406 178.623C140.972 178.023 140.469 177.655 139.895 177.517C139.321 177.378 138.697 177.471 138.025 177.795C137.335 178.127 136.854 178.571 136.583 179.126C136.307 179.694 136.303 180.255 136.57 180.81C136.728 181.138 136.969 181.359 137.293 181.472C137.608 181.59 137.963 181.585 138.358 181.457L138.43 181.608Z" fill="black"/>
<path d="M134.556 182.857C134.274 182.245 133.901 181.828 133.436 181.604C132.976 181.39 132.462 181.39 131.895 181.606C131.441 181.778 131.11 182.038 130.903 182.386C130.687 182.738 130.618 183.133 130.695 183.573L129.565 183.792C129.462 183.073 129.587 182.431 129.942 181.867C130.292 181.315 130.82 180.905 131.527 180.637C132.469 180.279 133.32 180.286 134.08 180.656C134.843 181.036 135.416 181.731 135.801 182.744C136.181 183.747 136.224 184.635 135.927 185.406C135.631 186.177 135.034 186.733 134.135 187.075C133.236 187.416 132.418 187.392 131.682 187.002C130.939 186.625 130.39 185.965 130.032 185.023L129.883 184.63L134.556 182.857ZM134.837 183.678L131.317 185.014C131.512 185.529 131.843 185.888 132.309 186.09C132.77 186.305 133.257 186.314 133.772 186.119C134.27 185.93 134.607 185.622 134.784 185.196C134.965 184.778 134.983 184.272 134.837 183.678Z" fill="black"/>
<path d="M126.153 184.204C126.602 184.523 126.934 185.059 127.147 185.814C127.361 186.568 127.359 187.194 127.141 187.692C126.914 188.193 126.505 188.527 125.912 188.695C125.319 188.863 124.804 188.791 124.366 188.478C123.92 188.168 123.589 187.636 123.376 186.882C123.162 186.127 123.163 185.497 123.378 184.99C123.587 184.494 123.988 184.162 124.58 183.994C125.173 183.826 125.697 183.896 126.153 184.204ZM127.444 185.73C127.141 184.661 126.692 183.896 126.095 183.434C125.492 182.984 124.809 182.867 124.046 183.083C123.265 183.305 122.698 183.785 122.345 184.526C121.985 185.277 121.956 186.183 122.256 187.243C122.546 188.266 123.02 189 123.679 189.444C124.341 189.897 125.072 190.01 125.871 189.784C126.661 189.56 127.198 189.092 127.482 188.382C127.759 187.682 127.746 186.798 127.444 185.73ZM126.648 179.786L125.53 180.102L126.274 182.729L127.099 184.256L126.77 184.48L127.533 187.174L127.917 187.196L128.029 188.925L129.147 188.608L126.648 179.786Z" fill="black"/>
<path d="M121.604 190.672L121.393 189.586L119.235 190.006L118.216 184.771L117.062 184.995L118.081 190.231L115.91 190.654L116.121 191.74L121.604 190.672Z" fill="black"/>
<path d="M113.083 188.956C112.996 188.177 112.761 187.593 112.379 187.204C111.998 186.824 111.511 186.667 110.918 186.734C110.315 186.802 109.87 187.063 109.583 187.518C109.287 187.983 109.184 188.605 109.271 189.384C109.357 190.154 109.596 190.729 109.986 191.107C110.368 191.497 110.86 191.657 111.463 191.59C112.056 191.523 112.496 191.258 112.782 190.793C113.069 190.339 113.17 189.726 113.083 188.956ZM114.252 188.825C114.375 189.92 114.196 190.794 113.715 191.449C113.226 192.115 112.514 192.5 111.577 192.605C110.696 192.704 109.929 192.48 109.275 191.934C108.613 191.388 108.222 190.582 108.102 189.516C107.98 188.421 108.162 187.537 108.65 186.862C109.139 186.197 109.856 185.811 110.802 185.705C111.739 185.599 112.519 185.817 113.144 186.357C113.759 186.908 114.129 187.731 114.252 188.825Z" fill="black"/>
<path d="M106.343 192.83L105.181 192.861L105.108 190.146L101.749 190.237L101.822 192.952L100.633 192.984L100.459 186.546L101.648 186.514L101.719 189.117L105.078 189.026L105.007 186.423L106.169 186.392L106.343 192.83Z" fill="black"/>
<path d="M98.9155 192.944L99.2137 186.511L98.0529 186.457L97.806 191.785L94.086 191.613L94.0348 192.718L98.9155 192.944Z" fill="black"/>
<path d="M89.5846 190.171L84.9086 189.445L85.0633 188.449L89.7392 189.175L89.5846 190.171Z" fill="black"/>
<path d="M76.2692 182.871L77.5178 183.24L78.222 188.514L79.5989 183.855L80.7132 184.185L78.8879 190.36L77.3439 189.904L76.5947 184.091L72.7926 188.559L71.2889 188.115L73.1142 181.939L74.1882 182.256L72.8113 186.915L76.2692 182.871Z" fill="black"/>
<path d="M70.1341 182.592C70.2418 182.323 70.2108 182.075 70.0412 181.846C69.8715 181.617 69.6005 181.428 69.228 181.278C68.7169 181.073 68.2481 181.051 67.8216 181.212C67.3864 181.369 67.0802 181.669 66.903 182.111L66.6821 182.022C66.9844 181.268 67.4355 180.745 68.0355 180.453C68.632 180.169 69.268 180.163 69.9437 180.434C70.5241 180.667 70.9423 181.016 71.1984 181.48C71.451 181.954 71.4783 182.437 71.2802 182.931C71.1065 183.364 70.835 183.653 70.4657 183.796C70.0929 183.948 69.5981 183.991 68.9811 183.925L66.3193 183.566L66.6477 182.747L68.8935 183.09C69.5503 183.182 69.9638 183.016 70.1341 182.592ZM66.7106 179.394L67.8151 179.837L66.8311 181.237L67.1376 181.526L66.2307 183.787C66.0778 184.168 66.0844 184.528 66.2505 184.866C66.4166 185.204 66.7162 185.46 67.1493 185.633C67.5824 185.807 67.9897 185.82 68.3711 185.671C68.7491 185.531 69.0414 185.266 69.248 184.876L70.2535 185.491C69.8959 186.082 69.4016 186.487 68.7705 186.706C68.1394 186.926 67.4601 186.889 66.7324 186.598C65.9961 186.302 65.4757 185.857 65.1712 185.262C64.8668 184.668 64.8327 184.076 65.0689 183.487L66.7106 179.394Z" fill="black"/>
<path d="M60.7305 180.224C60.3377 180.092 59.9787 180.091 59.6536 180.222C59.3161 180.356 59.0603 180.6 58.8864 180.951C58.6421 181.444 58.6608 181.954 58.9425 182.478C59.2118 183.007 59.6935 183.444 60.3878 183.787C61.0569 184.119 61.6793 184.229 62.2549 184.118C62.8221 184.003 63.3174 183.665 63.741 183.104L62.7929 182.432C62.5145 182.763 62.2232 182.962 61.9187 183.03C61.6059 183.094 61.2655 183.035 60.8975 182.853C60.496 182.654 60.2216 182.409 60.0744 182.117C59.9188 181.821 59.9113 181.531 60.0521 181.247C60.1557 181.038 60.32 180.906 60.5452 180.85C60.762 180.791 61.0001 180.826 61.2594 180.954L62.5391 181.588L62.9925 180.672L61.7128 180.038C61.4535 179.91 61.2796 179.746 61.1912 179.546C61.0944 179.341 61.0998 179.131 61.2075 178.913C61.369 178.587 61.6249 178.386 61.9752 178.309C62.3171 178.228 62.6888 178.287 63.0903 178.486C63.45 178.664 63.6889 178.908 63.807 179.216C63.9251 179.524 63.9266 179.91 63.8116 180.374L64.9149 180.733C65.1208 180.023 65.1017 179.399 64.8574 178.861C64.6132 178.324 64.1565 177.889 63.4874 177.558C62.8015 177.218 62.1562 177.112 61.5515 177.24C60.9342 177.372 60.489 177.714 60.2157 178.266C60.0542 178.592 60.0283 178.918 60.1381 179.243C60.2396 179.564 60.4619 179.841 60.8051 180.073L60.7305 180.224Z" fill="black"/>
<path d="M57.3945 177.959C57.7006 177.359 57.7977 176.807 57.6859 176.305C57.5693 175.81 57.251 175.407 56.731 175.094C56.3149 174.844 55.906 174.746 55.5042 174.798C55.0944 174.846 54.7406 175.036 54.4427 175.369L53.5715 174.617C54.0728 174.091 54.6548 173.793 55.3175 173.722C55.9674 173.656 56.6164 173.817 57.2644 174.206C58.1285 174.725 58.65 175.398 58.8288 176.224C59.0029 177.058 58.8111 177.939 58.2536 178.867C57.7009 179.787 57.0299 180.369 56.2407 180.614C55.4514 180.858 54.6448 180.733 53.8207 180.238C52.9966 179.743 52.5095 179.086 52.3595 178.266C52.1967 177.45 52.3748 176.609 52.8939 175.745L53.1101 175.385L57.3945 177.959ZM56.9236 178.688L53.6953 176.749C53.4117 177.221 53.3346 177.703 53.464 178.194C53.5806 178.689 53.8749 179.078 54.347 179.362C54.803 179.636 55.2535 179.71 55.6986 179.586C56.1388 179.469 56.5472 179.17 56.9236 178.688Z" fill="black"/>
<path d="M51.1499 172.187C51.1766 172.737 50.9594 173.33 50.4982 173.964C50.037 174.598 49.5433 174.983 49.0169 175.119C48.4831 175.25 47.967 175.135 47.4689 174.772C46.9708 174.41 46.7094 173.96 46.6847 173.423C46.6525 172.88 46.867 172.292 47.3282 171.658C47.7894 171.024 48.2859 170.635 48.8177 170.491C49.3365 170.349 49.8449 170.459 50.3431 170.821C50.8412 171.183 51.1102 171.639 51.1499 172.187ZM50.7473 174.145C51.4006 173.247 51.7246 172.42 51.7192 171.666C51.7007 170.914 51.3707 170.305 50.7292 169.838C50.0725 169.36 49.3441 169.211 48.544 169.391C47.7308 169.573 47.0003 170.109 46.3525 171C45.7266 171.86 45.4428 172.687 45.501 173.479C45.5538 174.279 45.916 174.924 46.5878 175.412C47.252 175.896 47.9512 176.029 48.6854 175.813C49.4067 175.599 50.0939 175.043 50.7473 174.145ZM54.9297 169.847L53.9901 169.163L52.3841 171.371L51.6933 172.963L51.3135 172.843L49.6664 175.107L49.8867 175.423L48.5958 176.579L49.5355 177.262L54.9297 169.847Z" fill="black"/>
<path d="M43.2335 172.596L43.9567 171.759L42.2937 170.322L45.7815 166.286L44.8917 165.517L41.4039 169.553L39.7303 168.106L39.0071 168.943L43.2335 172.596Z" fill="black"/>
<path d="M39.3533 164.881C39.9117 164.33 40.2258 163.785 40.2958 163.244C40.359 162.71 40.181 162.23 39.7617 161.805C39.3359 161.373 38.8555 161.184 38.3205 161.24C37.7723 161.295 37.219 161.598 36.6606 162.148C36.1089 162.692 35.8046 163.235 35.7479 163.775C35.678 164.316 35.8559 164.802 36.2818 165.234C36.7011 165.66 37.1816 165.842 37.7232 165.78C38.2582 165.724 38.8015 165.424 39.3533 164.881ZM40.1788 165.718C39.3944 166.491 38.5962 166.891 37.7842 166.918C36.959 166.945 36.2156 166.623 35.5539 165.952C34.9315 165.32 34.6333 164.579 34.6593 163.728C34.6787 162.87 35.0707 162.064 35.8351 161.311C36.6195 160.538 37.4276 160.134 38.2594 160.101C39.0846 160.074 39.8313 160.399 40.4996 161.077C41.1613 161.749 41.4727 162.497 41.4337 163.322C41.3815 164.146 40.9632 164.945 40.1788 165.718Z" fill="black"/>
<path d="M32.1124 161.954L31.3687 161.062L33.4556 159.323L31.3052 156.742L29.2183 158.48L28.4567 157.566L33.405 153.444L34.1666 154.358L32.1657 156.025L34.3162 158.606L36.317 156.94L37.0607 157.833L32.1124 161.954Z" fill="black"/>
<path d="M27.692 156.539L32.9137 152.77L32.2336 151.828L27.9087 154.95L25.729 151.93L24.8323 152.577L27.692 156.539Z" fill="black"/>
<path d="M24.0631 147.517L21.7317 143.399L22.6089 142.903L24.9403 147.02L24.0631 147.517Z" fill="black"/>
<path d="M21.4918 132.51L21.9765 133.719L18.2755 137.541L22.7843 135.733L23.2169 136.811L17.2398 139.209L16.6404 137.715L20.7363 133.523L14.8737 133.31L14.2899 131.854L20.2671 129.457L20.684 130.496L16.1752 132.305L21.4918 132.51Z" fill="black"/>
<path d="M17.8955 127.535C18.1729 127.453 18.3489 127.275 18.4233 127C18.4977 126.725 18.4781 126.395 18.3643 126.01C18.2083 125.482 17.9349 125.1 17.5443 124.865C17.1511 124.621 16.7262 124.567 16.2697 124.702L16.2023 124.474C16.981 124.243 17.671 124.273 18.2724 124.563C18.8648 124.855 19.2641 125.35 19.4705 126.048C19.6477 126.648 19.6334 127.192 19.4276 127.681C19.2128 128.173 18.8503 128.494 18.3402 128.645C17.8926 128.777 17.4981 128.743 17.1565 128.542C16.806 128.344 16.4655 127.982 16.1351 127.457L14.766 125.146L15.6119 124.896L16.7356 126.871C17.0703 127.443 17.4569 127.665 17.8955 127.535ZM18.282 122.866L18.6193 124.007L16.9105 124.104L16.8739 124.523L14.5378 125.214C14.144 125.33 13.8659 125.558 13.7036 125.898C13.5413 126.238 13.5263 126.632 13.6585 127.079C13.7908 127.527 14.0335 127.854 14.3867 128.061C14.7309 128.271 15.12 128.336 15.5539 128.257L15.6953 129.426C15.0101 129.512 14.3858 129.375 13.8223 129.016C13.2587 128.657 12.8659 128.102 12.6437 127.35C12.4188 126.589 12.4453 125.905 12.7231 125.298C13.0009 124.69 13.4442 124.296 14.0528 124.116L18.282 122.866Z" fill="black"/>
<path d="M13.9327 118.803C13.7918 118.413 13.5691 118.131 13.2646 117.958C12.9491 117.777 12.5997 117.728 12.2164 117.811C11.678 117.926 11.2909 118.257 11.055 118.804C10.8081 119.344 10.766 119.993 10.9285 120.75C11.0852 121.48 11.3858 122.036 11.8305 122.418C12.2732 122.791 12.846 122.969 13.5487 122.952L13.4857 121.791C13.0536 121.779 12.7162 121.674 12.4736 121.478C12.2291 121.273 12.0638 120.97 11.9776 120.568C11.8836 120.13 11.905 119.763 12.0418 119.466C12.1767 119.16 12.3992 118.974 12.7095 118.908C12.9377 118.859 13.1433 118.905 13.3265 119.047C13.5078 119.18 13.6288 119.388 13.6895 119.671L13.9891 121.067L14.9884 120.853L14.6887 119.457C14.628 119.174 14.6485 118.935 14.7501 118.742C14.8498 118.539 15.0183 118.412 15.2556 118.361C15.6115 118.285 15.9283 118.36 16.206 118.587C16.4818 118.804 16.6667 119.132 16.7607 119.57C16.8449 119.963 16.803 120.301 16.6349 120.585C16.4668 120.87 16.1654 121.111 15.7306 121.309L16.1358 122.396C16.8201 122.116 17.2969 121.713 17.5659 121.187C17.835 120.662 17.8912 120.034 17.7346 119.304C17.574 118.556 17.2557 117.985 16.7797 117.59C16.2927 117.189 15.748 117.053 15.1457 117.182C14.7898 117.258 14.5187 117.441 14.3323 117.729C14.144 118.008 14.0656 118.354 14.097 118.767L13.9327 118.803Z" fill="black"/>
<path d="M13.6061 114.669C14.2668 114.537 14.7598 114.272 15.0851 113.873C15.4012 113.475 15.5208 112.975 15.4438 112.373C15.3823 111.892 15.2064 111.51 14.9162 111.227C14.6248 110.935 14.2562 110.775 13.8104 110.747L13.8611 109.597C14.5848 109.665 15.1794 109.937 15.645 110.414C16.1001 110.882 16.3756 111.492 16.4715 112.242C16.5993 113.242 16.3944 114.068 15.8567 114.72C15.3098 115.373 14.4994 115.768 13.4255 115.906C12.3608 116.042 11.4881 115.876 10.8072 115.408C10.1264 114.939 9.72497 114.229 9.60306 113.275C9.48115 112.321 9.69542 111.532 10.2459 110.906C10.7859 110.273 11.5558 109.892 12.5557 109.764L12.9723 109.711L13.6061 114.669ZM12.7416 114.751L12.264 111.015C11.7178 111.085 11.2918 111.323 10.9862 111.729C10.6701 112.127 10.547 112.599 10.6168 113.145C10.6843 113.673 10.9048 114.073 11.2783 114.345C11.6426 114.619 12.1303 114.754 12.7416 114.751Z" fill="black"/>
<path d="M14.2447 106.089C13.829 106.451 13.2294 106.647 12.446 106.677C11.6626 106.707 11.0544 106.558 10.6214 106.229C10.188 105.891 9.95942 105.414 9.93565 104.798C9.91189 104.183 10.1034 103.699 10.5101 103.347C10.9165 102.986 11.5113 102.79 12.2948 102.76C13.0782 102.729 13.6911 102.879 14.1334 103.207C14.566 103.527 14.7942 103.994 14.818 104.61C14.8418 105.225 14.6507 105.718 14.2447 106.089ZM12.4579 106.985C13.5677 106.942 14.4171 106.685 15.006 106.214C15.5853 105.734 15.8596 105.097 15.829 104.305C15.7977 103.493 15.4638 102.829 14.8274 102.312C14.1812 101.786 13.3079 101.544 12.2074 101.586C11.1442 101.627 10.3194 101.916 9.73299 102.452C9.13725 102.989 8.85541 103.672 8.88746 104.502C8.91915 105.323 9.24711 105.955 9.87133 106.398C10.4859 106.832 11.348 107.027 12.4579 106.985ZM18.4224 107.609L18.3776 106.448L15.6496 106.553L13.9715 106.996L13.831 106.623L11.0331 106.731L10.9212 107.1L9.21441 106.802L9.25925 107.963L18.4224 107.609Z" fill="black"/>
<path d="M9.01571 99.7921L10.1205 99.8433L10.2223 97.6477L15.5506 97.8946L15.605 96.7198L10.2767 96.4729L10.3791 94.2633L9.27429 94.2121L9.01571 99.7921Z" fill="black"/>
<path d="M12.6669 92.0283C13.4446 92.1277 14.0676 92.038 14.5361 91.7592C14.9953 91.4792 15.2628 91.0429 15.3386 90.4504C15.4155 89.8486 15.267 89.3545 14.893 88.9679C14.5109 88.5709 13.931 88.3227 13.1534 88.2233C12.3849 88.125 11.7705 88.2206 11.3101 88.5099C10.8417 88.7887 10.5689 89.229 10.492 89.8308C10.4163 90.4233 10.57 90.9134 10.9533 91.3011C11.3273 91.6877 11.8985 91.9301 12.6669 92.0283ZM12.5178 93.1948C11.4253 93.0552 10.6178 92.6743 10.0951 92.0524C9.56432 91.42 9.35872 90.6362 9.47826 89.7012C9.59071 88.8217 9.98973 88.1293 10.6753 87.6242C11.3621 87.1098 12.2378 86.9207 13.3025 87.0568C14.3949 87.1965 15.2112 87.5831 15.7512 88.2167C16.2819 88.8491 16.4869 89.6375 16.3662 90.5818C16.2467 91.5168 15.8505 92.2236 15.1777 92.7022C14.4968 93.1703 13.6102 93.3345 12.5178 93.1948Z" fill="black"/>
<path d="M10.4326 84.8165L10.672 83.6794L13.3297 84.2391L14.0222 80.9513L11.3645 80.3916L11.6097 79.2271L17.9115 80.5543L17.6662 81.7187L15.1181 81.1821L14.4257 84.47L16.9738 85.0066L16.7343 86.1437L10.4326 84.8165Z" fill="black"/>
<path d="M11.9528 77.9003L18.1424 79.6787L18.4633 78.5619L13.3367 77.0889L14.3651 73.5097L13.3021 73.2043L11.9528 77.9003Z" fill="black"/>
<path d="M16.874 69.237L18.6847 64.8651L19.616 65.2508L17.8052 69.6227L16.874 69.237Z" fill="black"/>
<path d="M26.9132 58.2914L26.2634 59.4197L20.9707 58.8756L25.1804 61.3001L24.6005 62.307L19.0199 59.093L19.8234 57.6978L25.6507 58.3236L22.192 53.5851L22.9746 52.2264L28.5552 55.4404L27.9962 56.411L23.7865 53.9865L26.9132 58.2914Z" fill="black"/>
<path d="M28.741 52.1446C28.9768 52.3122 29.2259 52.3404 29.4882 52.2291C29.7505 52.1179 29.9979 51.8987 30.2304 51.5715C30.5494 51.1227 30.6807 50.6721 30.6244 50.2198C30.5734 49.7599 30.3539 49.3921 29.9659 49.1163L30.1038 48.9223C30.7657 49.3927 31.1684 49.9538 31.3121 50.6056C31.4481 51.2519 31.3052 51.8718 30.8835 52.4651C30.5212 52.9748 30.0841 53.2997 29.5723 53.4398C29.053 53.5744 28.5764 53.4876 28.1428 53.1794C27.7625 52.9091 27.5458 52.5776 27.4928 52.1849C27.4322 51.7869 27.5065 51.2958 27.7156 50.7116L28.6879 48.2079L29.4068 48.7189L28.5475 50.8219C28.3037 51.4388 28.3682 51.8796 28.741 52.1446ZM32.6523 49.5658L31.9629 50.5357L30.8321 49.251L30.4794 49.4813L28.4939 48.07C28.1592 47.8321 27.808 47.7542 27.4404 47.8364C27.0728 47.9187 26.7538 48.15 26.4834 48.5303C26.2131 48.9107 26.1055 49.3037 26.1607 49.7094C26.2082 50.1096 26.3973 50.4558 26.7278 50.748L25.8948 51.5816C25.4044 51.0956 25.1264 50.5201 25.0608 49.8551C24.9953 49.1902 25.1896 48.5382 25.6438 47.8992C26.1034 47.2526 26.658 46.8509 27.3075 46.6943C27.9571 46.5376 28.5405 46.6431 29.0578 47.0108L32.6523 49.5658Z" fill="black"/>
<path d="M33.2205 43.5497C33.4403 43.1983 33.5245 42.8494 33.473 42.5028C33.4204 42.1431 33.2435 41.8378 32.9423 41.587C32.5191 41.2345 32.0196 41.1343 31.4436 41.2862C30.8665 41.4249 30.33 41.7919 29.8342 42.3871C29.3563 42.9608 29.1043 43.5405 29.0782 44.126C29.058 44.7044 29.2714 45.2648 29.7185 45.8073L30.593 45.0417C30.336 44.694 30.2099 44.3642 30.2146 44.0523C30.2253 43.7332 30.362 43.4159 30.6249 43.1004C30.9116 42.7561 31.2139 42.5463 31.5317 42.471C31.8556 42.3885 32.1394 42.4487 32.3832 42.6518C32.5625 42.8012 32.6528 42.9918 32.654 43.2236C32.6612 43.4483 32.5723 43.6717 32.3871 43.8941L31.4732 44.9913L32.2584 45.6454L33.1724 44.5481C33.3575 44.3258 33.5577 44.1949 33.7728 44.1555C33.9938 44.1088 34.1976 44.1631 34.3841 44.3184C34.6637 44.5514 34.8 44.8471 34.7929 45.2056C34.7918 45.557 34.6479 45.9047 34.3612 46.249C34.1043 46.5573 33.8122 46.7331 33.4848 46.7762C33.1573 46.8193 32.7815 46.7309 32.3572 46.5111L31.7516 47.5007C32.3946 47.8663 33.0058 47.9928 33.5854 47.8803C34.1649 47.7679 34.6937 47.4248 35.1715 46.8511C35.6614 46.263 35.9146 45.6601 35.9312 45.0423C35.9466 44.4113 35.7176 43.8987 35.2443 43.5044C34.9646 43.2715 34.6539 43.1706 34.3121 43.2017C33.9763 43.2257 33.6555 43.3775 33.3496 43.6572L33.2205 43.5497Z" fill="black"/>
<path d="M35.988 41.0255C36.5009 41.4621 37.0148 41.6842 37.5297 41.6918C38.0379 41.6928 38.5042 41.4765 38.9285 41.0429C39.2679 40.696 39.4585 40.321 39.5003 39.918C39.5486 39.5082 39.4454 39.12 39.1906 38.7531L40.1238 38.0797C40.5198 38.6892 40.6753 39.3244 40.5901 39.9853C40.5047 40.633 40.1977 41.2271 39.669 41.7675C38.964 42.4879 38.189 42.8396 37.3441 42.8224C36.4924 42.7987 35.6796 42.4082 34.9058 41.6511C34.1386 40.9004 33.7274 40.1129 33.6722 39.2885C33.617 38.4641 33.9256 37.7083 34.5979 37.0212C35.2702 36.3341 36.0224 36.0123 36.8545 36.0561C37.6864 36.0866 38.4627 36.4544 39.1831 37.1593L39.4833 37.453L35.988 41.0255ZM35.3871 40.3984L38.0209 37.7066C37.6273 37.3215 37.1765 37.135 36.6684 37.1471C36.1602 37.1461 35.7135 37.3423 35.3284 37.7359C34.9563 38.1162 34.7794 38.5372 34.7977 38.999C34.8092 39.4543 35.0057 39.9208 35.3871 40.3984Z" fill="black"/>
<path d="M42.9984 36.2784C42.4568 36.1774 41.9307 35.8294 41.4202 35.2343C40.9097 34.6393 40.6488 34.07 40.6374 33.5263C40.6331 32.9766 40.8647 32.5013 41.3323 32.1002C41.7998 31.6991 42.2978 31.5485 42.8263 31.6485C43.3619 31.7424 43.8849 32.0869 44.3954 32.6819C44.9058 33.2769 45.1698 33.8498 45.1873 34.4005C45.2057 34.9381 44.9812 35.4074 44.5137 35.8085C44.0461 36.2096 43.5411 36.3662 42.9984 36.2784ZM41.1864 35.4349C41.9096 36.2778 42.6387 36.7837 43.3738 36.9524C44.1098 37.108 44.7789 36.9275 45.381 36.4109C45.9973 35.8822 46.3103 35.2079 46.3201 34.3879C46.3308 33.5547 45.9777 32.7202 45.2606 31.8843C44.5678 31.0768 43.8291 30.6099 43.0444 30.4837C42.2537 30.3504 41.5432 30.5542 40.9127 31.0951C40.2893 31.6299 39.9981 32.2794 40.0389 33.0437C40.0807 33.7949 40.4633 34.5919 41.1864 35.4349ZM44.4034 40.4962L45.2853 39.7396L43.5077 37.6676L42.1178 36.628L42.3227 36.2863L40.4995 34.1611L40.1412 34.3025L39.3145 32.7798L38.4325 33.5364L44.4034 40.4962Z" fill="black"/>
<path d="M44.6085 28.3073L45.2558 29.2041L47.038 27.9176L50.1599 32.2425L51.1135 31.5542L47.9915 27.2293L49.785 25.9346L49.1377 25.0379L44.6085 28.3073Z" fill="black"/>
<path d="M52.8018 26.4192C53.2079 27.0898 53.6659 27.5217 54.1758 27.7148C54.6808 27.8999 55.1887 27.8378 55.6996 27.5283C56.2185 27.214 56.5129 26.7902 56.5827 26.2569C56.6556 25.7107 56.489 25.1024 56.0828 24.4318C55.6814 23.7692 55.2243 23.3478 54.7113 23.1674C54.2015 22.9743 53.6871 23.0349 53.1682 23.3492C52.6573 23.6587 52.3694 24.0841 52.3044 24.6254C52.2346 25.1587 52.4004 25.7566 52.8018 26.4192ZM51.7959 27.0285C51.2253 26.0865 51.0208 25.2174 51.1823 24.4212C51.347 23.6122 51.8324 22.9635 52.6387 22.4751C53.3971 22.0157 54.1873 21.8971 55.0094 22.1194C55.8395 22.3368 56.5326 22.9045 57.0886 23.8225C57.6592 24.7645 57.8646 25.644 57.7048 26.461C57.5401 27.2701 57.0506 27.9212 56.2364 28.4144C55.4301 28.9028 54.6303 29.0326 53.837 28.8039C53.0469 28.5623 52.3665 27.9705 51.7959 27.0285Z" fill="black"/>
<path d="M57.6217 19.8622L58.6631 19.3467L59.8681 21.7807L62.8793 20.29L61.6743 17.8559L62.7407 17.328L65.598 23.0994L64.5315 23.6274L63.3762 21.2937L60.365 22.7845L61.5203 25.1181L60.4789 25.6337L57.6217 19.8622Z" fill="black"/>
<path d="M63.8106 16.8532L66.2527 22.8123L67.3279 22.3716L65.3052 17.436L68.7511 16.0238L68.3317 15.0005L63.8106 16.8532Z" fill="black"/>
<path d="M73.1557 15.4865L77.7037 14.1797L77.982 15.1485L73.434 16.4553L73.1557 15.4865Z" fill="black"/>
<path d="M88.4356 16.4157L87.1475 16.6055L84.2923 12.1159L85.0007 16.922L83.8512 17.0914L82.912 10.7203L84.5048 10.4855L87.6275 15.4451L89.2001 9.79339L90.7513 9.56473L91.6905 15.9359L90.5824 16.0992L89.874 11.2931L88.4356 16.4157Z" fill="black"/>
<path d="M94.0008 14.0542C94.0164 14.3431 94.1494 14.5555 94.3998 14.6915C94.6502 14.8275 94.9757 14.8847 95.3765 14.8631C95.9263 14.8333 96.3607 14.6556 96.6796 14.3299C97.0078 14.0037 97.159 13.603 97.1333 13.1277L97.371 13.1148C97.4148 13.9256 97.2264 14.5901 96.8058 15.1082C96.3847 15.617 95.8106 15.8911 95.0837 15.9304C94.4593 15.9642 93.9329 15.8244 93.5047 15.5111C93.076 15.1884 92.8473 14.7615 92.8186 14.2302C92.7934 13.7643 92.9179 13.3883 93.1922 13.1024C93.466 12.8072 93.8966 12.5596 94.484 12.3596L97.0487 11.5619L97.0963 12.4427L94.9155 13.0793C94.281 13.2725 93.9761 13.5975 94.0008 14.0542ZM98.4539 15.5098L97.2656 15.5741L97.5671 13.8893L97.1673 13.7567L97.0358 11.3243C97.0136 10.9142 96.856 10.5909 96.5628 10.3544C96.2696 10.1179 95.89 10.0122 95.424 10.0374C94.958 10.0626 94.5834 10.2231 94.3003 10.5188C94.0167 10.8052 93.8635 11.1687 93.8405 11.6092L92.6697 11.4763C92.7447 10.7899 93.022 10.2141 93.5016 9.74882C93.9812 9.28358 94.6124 9.0298 95.3952 8.98747C96.1874 8.94463 96.847 9.12862 97.3739 9.53943C97.9009 9.95025 98.1815 10.4725 98.2158 11.1063L98.4539 15.5098Z" fill="black"/>
<path d="M104.159 12.206C104.571 12.1611 104.897 12.0112 105.137 11.7563C105.387 11.4923 105.517 11.1643 105.528 10.7725C105.543 10.222 105.312 9.76761 104.836 9.40929C104.37 9.0419 103.75 8.84774 102.976 8.82681C102.229 8.80664 101.618 8.96752 101.142 9.30945C100.675 9.65163 100.367 10.1662 100.218 10.853L101.36 11.066C101.474 10.6489 101.655 10.3457 101.903 10.1563C102.16 9.9672 102.494 9.87819 102.905 9.88928C103.353 9.90139 103.705 10.0089 103.96 10.2119C104.226 10.4152 104.354 10.6754 104.346 10.9926C104.339 11.2259 104.245 11.4147 104.064 11.5592C103.892 11.704 103.662 11.7724 103.372 11.7646L101.945 11.726L101.917 12.7476L103.345 12.7862C103.634 12.794 103.861 12.8702 104.025 13.0147C104.198 13.1594 104.282 13.3531 104.275 13.5957C104.265 13.9595 104.117 14.2496 103.831 14.466C103.555 14.6826 103.193 14.7848 102.745 14.7727C102.344 14.7619 102.025 14.6412 101.788 14.4108C101.552 14.1803 101.388 13.8304 101.298 13.3612L100.146 13.4981C100.257 14.2293 100.536 14.7878 100.983 15.1733C101.43 15.5589 102.027 15.7617 102.774 15.7819C103.539 15.8026 104.169 15.6282 104.664 15.2588C105.169 14.8803 105.43 14.3832 105.447 13.7674C105.457 13.4035 105.344 13.097 105.108 12.8479C104.881 12.599 104.563 12.441 104.154 12.3739L104.159 12.206Z" fill="black"/>
<path d="M108.023 12.8235C107.997 13.4966 108.14 14.0378 108.453 14.4472C108.766 14.8473 109.224 15.08 109.827 15.1454C110.31 15.1976 110.723 15.1156 111.065 14.8993C111.417 14.6839 111.658 14.3627 111.789 13.9357L112.895 14.2527C112.661 14.9408 112.258 15.4557 111.686 15.7974C111.124 16.1308 110.467 16.2568 109.716 16.1753C108.714 16.0667 107.958 15.6751 107.449 15.0003C106.941 14.3163 106.746 13.4361 106.862 12.3597C106.978 11.2926 107.343 10.4825 107.957 9.92944C108.57 9.37635 109.355 9.15159 110.311 9.25516C111.267 9.35872 111.985 9.75101 112.465 10.432C112.955 11.1048 113.146 11.9422 113.037 12.9443L112.992 13.3619L108.023 12.8235ZM108.144 11.9635L111.889 12.3692C111.948 11.8218 111.816 11.3521 111.492 10.9603C111.179 10.5602 110.748 10.3305 110.201 10.2712C109.672 10.2139 109.232 10.3352 108.88 10.635C108.529 10.9256 108.284 11.3684 108.144 11.9635Z" fill="black"/>
<path d="M116.152 15.4075C115.897 14.9191 115.846 14.2904 115.998 13.5214C116.151 12.7524 116.438 12.1956 116.858 11.851C117.288 11.5081 117.805 11.3967 118.409 11.5168C119.013 11.6368 119.439 11.9355 119.687 12.4129C119.944 12.8922 119.996 13.5163 119.843 14.2853C119.69 15.0542 119.403 15.6156 118.98 15.9694C118.569 16.3159 118.061 16.4291 117.457 16.3091C116.853 16.1891 116.418 15.8885 116.152 15.4075ZM115.696 13.4614C115.48 14.5508 115.532 15.4366 115.853 16.119C116.186 16.794 116.741 17.2087 117.519 17.3633C118.315 17.5216 119.039 17.3513 119.69 16.8526C120.352 16.3466 120.79 15.5534 121.005 14.4732C121.212 13.4296 121.123 12.5603 120.738 11.8652C120.354 11.161 119.755 10.7279 118.941 10.5661C118.135 10.406 117.444 10.5781 116.868 11.0822C116.303 11.5789 115.913 12.372 115.696 13.4614ZM113.702 19.1172L114.842 19.3436L115.374 16.6659L115.333 14.9308L115.728 14.8808L116.274 12.1345L115.941 11.94L116.629 10.3494L115.489 10.123L113.702 19.1172Z" fill="black"/>
<path d="M123.272 11.7143L122.967 12.7773L125.079 13.3843L123.606 18.5109L124.737 18.8356L126.21 13.7091L128.336 14.3199L128.641 13.257L123.272 11.7143Z" fill="black"/>
<path d="M130.067 17.08C129.788 17.813 129.73 18.4398 129.892 18.9604C130.057 19.4723 130.419 19.8342 130.977 20.0462C131.545 20.2614 132.06 20.2323 132.523 19.9589C132.998 19.68 133.375 19.1741 133.653 18.4411C133.928 17.7168 133.978 17.0971 133.805 16.5819C133.643 16.0613 133.278 15.6933 132.711 15.4781C132.153 15.2661 131.64 15.3013 131.174 15.5834C130.71 15.8569 130.341 16.3558 130.067 17.08ZM128.967 16.6628C129.358 15.6331 129.917 14.9367 130.643 14.5736C131.382 14.2051 132.192 14.1881 133.074 14.5226C133.903 14.8372 134.483 15.3868 134.814 16.1713C135.154 16.9592 135.133 17.8549 134.753 18.8584C134.362 19.888 133.795 20.5915 133.053 20.9687C132.314 21.3372 131.5 21.3526 130.61 21.0148C129.729 20.6803 129.134 20.1301 128.825 19.3642C128.529 18.5929 128.576 17.6924 128.967 16.6628Z" fill="black"/>
<path d="M137.722 16.629L138.771 17.1291L137.602 19.5808L140.635 21.0266L141.804 18.5749L142.878 19.087L140.107 24.9003L139.033 24.3882L140.153 22.0376L137.12 20.5918L136 22.9423L134.951 22.4423L137.722 16.629Z" fill="black"/>
<path d="M144.443 19.9149L141.249 25.5073L142.258 26.0835L144.903 21.4515L148.137 23.2982L148.686 22.3378L144.443 19.9149Z" fill="black"/>
<path d="M151.539 26.6433L155.366 29.4269L154.773 30.2421L150.946 27.4585L151.539 26.6433Z" fill="black"/>
<path d="M160.073 39.1876L159.129 38.2907L160.903 33.2744L157.556 36.7958L156.714 35.9953L161.15 31.3272L162.317 32.4363L160.338 37.9529L165.757 35.7058L166.894 36.786L162.457 41.4541L161.646 40.6825L164.992 37.1611L160.073 39.1876Z" fill="black"/>
<path d="M165.238 42.0035C165.021 42.1943 164.936 42.4302 164.983 42.7111C165.031 42.992 165.187 43.2833 165.452 43.585C165.815 43.999 166.223 44.2308 166.676 44.2803C167.135 44.3368 167.544 44.2082 167.902 43.8943L168.059 44.0733C167.448 44.6087 166.809 44.871 166.142 44.8604C165.482 44.8436 164.912 44.5615 164.432 44.0142C164.019 43.5441 163.804 43.0439 163.786 42.5136C163.775 41.9771 163.969 41.5335 164.369 41.1827C164.72 40.875 165.093 40.7407 165.487 40.7797C165.888 40.8126 166.349 40.9983 166.869 41.3366L169.081 42.8604L168.418 43.442L166.57 42.1205C166.026 41.741 165.582 41.702 165.238 42.0035ZM166.845 46.4044L166.06 45.5098L167.571 44.706L167.428 44.3097L169.26 42.7035C169.568 42.4327 169.725 42.109 169.73 41.7323C169.735 41.3557 169.583 40.9919 169.276 40.6411C168.968 40.2902 168.61 40.0948 168.203 40.0549C167.803 40.0088 167.422 40.1129 167.062 40.367L166.443 39.3642C167.029 38.9991 167.653 38.8614 168.315 38.9511C168.977 39.0408 169.567 39.3803 170.084 39.9698C170.607 40.5662 170.87 41.1985 170.872 41.8667C170.875 42.5348 170.637 43.0781 170.16 43.4966L166.845 46.4044Z" fill="black"/>
<path d="M172.581 48.3549C172.872 48.6498 173.192 48.8122 173.541 48.8421C173.903 48.8738 174.241 48.7721 174.555 48.5369C174.995 48.2065 175.208 47.7435 175.193 47.1481C175.191 46.5545 174.958 45.9478 174.493 45.3281C174.045 44.7307 173.539 44.3518 172.975 44.1913C172.417 44.0382 171.823 44.1166 171.192 44.4265L171.735 45.4541C172.133 45.2842 172.483 45.2375 172.785 45.3141C173.093 45.3981 173.37 45.6043 173.617 45.9329C173.885 46.2913 174.02 46.6338 174.02 46.9605C174.025 47.2946 173.901 47.5569 173.647 47.7473C173.461 47.8873 173.254 47.9311 173.029 47.8789C172.808 47.8341 172.611 47.6959 172.438 47.4645L171.581 46.3221L170.763 46.9353L171.62 48.0777C171.794 48.3091 171.875 48.5341 171.864 48.7525C171.858 48.9783 171.758 49.1641 171.564 49.3097C171.273 49.5281 170.954 49.5925 170.607 49.5029C170.265 49.4207 169.96 49.2004 169.691 48.842C169.45 48.521 169.347 48.1962 169.38 47.8676C169.414 47.5391 169.586 47.1938 169.898 46.8316L169.075 46.014C168.571 46.5554 168.307 47.121 168.283 47.7108C168.258 48.3007 168.47 48.8943 168.918 49.4916C169.377 50.1039 169.906 50.4894 170.503 50.6481C171.113 50.8086 171.665 50.7041 172.158 50.3345C172.449 50.1161 172.619 49.837 172.667 49.4973C172.722 49.165 172.648 48.8178 172.446 48.4557L172.581 48.3549Z" fill="black"/>
<path d="M174.722 52.1196C174.177 52.5158 173.84 52.9632 173.712 53.4619C173.592 53.9557 173.693 54.4597 174.015 54.9739C174.272 55.3852 174.592 55.6586 174.974 55.7938C175.361 55.937 175.762 55.9278 176.179 55.7663L176.614 56.8314C175.929 57.0733 175.275 57.0753 174.652 56.8373C174.043 56.6023 173.538 56.1644 173.136 55.5236C172.602 54.6692 172.442 53.8333 172.657 53.016C172.88 52.1937 173.45 51.4953 174.368 50.9208C175.278 50.3513 176.14 50.1365 176.954 50.2764C177.768 50.4163 178.43 50.8937 178.941 51.7085C179.451 52.5233 179.587 53.33 179.349 54.1286C179.124 54.9301 178.584 55.5983 177.73 56.1332L177.374 56.356L174.722 52.1196ZM175.472 51.6828L177.471 54.8749C177.937 54.5827 178.225 54.1883 178.332 53.6916C178.452 53.1978 178.366 52.7175 178.074 52.2508C177.792 51.7998 177.424 51.529 176.971 51.4383C176.526 51.3427 176.026 51.4242 175.472 51.6828Z" fill="black"/>
<path d="M177.722 60.148C177.948 59.6455 178.41 59.2164 179.109 58.8608C179.808 58.5051 180.423 58.3859 180.954 58.5032C181.489 58.6287 181.896 58.966 182.176 59.515C182.455 60.064 182.484 60.5834 182.262 61.0734C182.044 61.5717 181.586 61.9986 180.887 62.3543C180.189 62.7099 179.57 62.8312 179.03 62.7182C178.504 62.6093 178.101 62.2803 177.821 61.7313C177.542 61.1824 177.509 60.6546 177.722 60.148ZM178.969 58.5863C177.98 59.0901 177.316 59.6792 176.979 60.3537C176.654 61.0322 176.671 61.725 177.031 62.432C177.399 63.1556 177.981 63.619 178.775 63.822C179.582 64.0291 180.477 63.8828 181.458 63.3833C182.406 62.9006 183.034 62.293 183.342 61.5603C183.658 60.8234 183.628 60.0848 183.251 59.3445C182.879 58.6125 182.316 58.1762 181.564 58.0355C180.824 57.8989 179.959 58.0825 178.969 58.5863ZM173.292 60.5178L173.819 61.5534L176.252 60.315L177.59 59.2097L177.874 59.4895L180.369 58.2194L180.317 57.8378L181.991 57.3938L181.464 56.3582L173.292 60.5178Z" fill="black"/>
<path d="M184.911 63.2373L183.888 63.6567L184.721 65.6906L179.786 67.7132L180.232 68.8014L185.167 66.7788L186.006 68.8255L187.03 68.4061L184.911 63.2373Z" fill="black"/>
<path d="M184.898 71.8833C184.151 72.1197 183.623 72.4628 183.315 72.9126C183.016 73.3596 182.956 73.8679 183.136 74.4374C183.319 75.0159 183.661 75.4019 184.163 75.5957C184.677 75.7955 185.307 75.7772 186.055 75.5408C186.793 75.3073 187.311 74.9625 187.607 74.5067C187.915 74.0568 187.978 73.5427 187.795 72.9643C187.615 72.3947 187.269 72.0145 186.759 71.8236C186.257 71.6299 185.637 71.6498 184.898 71.8833ZM184.544 70.7621C185.594 70.43 186.486 70.4365 187.222 70.7814C187.969 71.1324 188.485 71.7573 188.769 72.6561C189.037 73.5016 188.965 74.2974 188.555 75.0438C188.148 75.7991 187.433 76.3385 186.409 76.6621C185.359 76.9942 184.456 76.9861 183.7 76.6379C182.953 76.2868 182.435 75.6575 182.148 74.7498C181.864 73.851 181.927 73.0432 182.336 72.3263C182.758 71.6155 183.493 71.0941 184.544 70.7621Z" fill="black"/>
<path d="M190.033 77.7931L190.29 78.9264L187.641 79.5266L188.383 82.8035L191.032 82.2033L191.295 83.3639L185.014 84.787L184.751 83.6264L187.291 83.051L186.549 79.7741L184.009 80.3495L183.752 79.2162L190.033 77.7931Z" fill="black"/>
<path d="M191.548 84.7994L185.18 85.7629L185.354 86.9118L190.628 86.1138L191.186 89.7958L192.279 89.6304L191.548 84.7994Z" fill="black"/>
<path d="M190.654 94.3397L190.855 99.0674L189.848 99.1102L189.647 94.3824L190.654 94.3397Z" fill="black"/>
</svg>
